<svg width="14" height="13" viewBox="0 0 14 13" fill="none" xmlns="http://www.w3.org/2000/svg">
<path d="M1.74376 1.18319C1.65407 1.18592 1.56587 1.20548 1.4844 1.24071C1.40292 1.27595 1.32982 1.32614 1.26942 1.38831C1.20902 1.45049 1.16255 1.52339 1.13276 1.6027C1.10297 1.682 1.09047 1.7661 1.096 1.85001C1.18561 3.28919 1.60806 6.80079 3.6307 8.99074C6.05276 11.6292 9.20705 12.5383 12.4433 12.404C12.6168 12.3943 12.7798 12.3233 12.8996 12.2053C13.0193 12.0873 13.0868 11.9312 13.0885 11.7684V9.46327C13.0865 9.2482 13.0074 9.04001 12.8639 8.8721C12.7204 8.7042 12.5209 8.58632 12.2973 8.5374L10.6767 8.20159C10.4762 8.16156 10.2676 8.17879 10.0777 8.25106C9.88781 8.32332 9.72544 8.4473 9.61158 8.60696L9.25314 9.11547C9.22023 9.162 9.17103 9.19632 9.11401 9.21252C9.057 9.22872 8.99574 9.22579 8.94078 9.20422C8.11636 8.87081 4.83149 7.43163 4.47049 5.00421C4.46341 4.95733 4.47131 4.90954 4.49318 4.86685C4.51505 4.82417 4.54991 4.7885 4.59338 4.76435L5.2437 4.39256C5.42207 4.289 5.56218 4.1366 5.64506 3.95598C5.72795 3.77537 5.74961 3.57526 5.70711 3.38274L5.35123 1.83802C5.2992 1.62158 5.16872 1.42873 4.982 1.29228C4.79527 1.15583 4.56385 1.08422 4.32711 1.08964L1.74376 1.18319Z" stroke="#F6B426" stroke-width="0.66632"/>
</svg>
