<svg width="32" height="32" viewBox="0 0 32 32" fill="none" xmlns="http://www.w3.org/2000/svg">
<path d="M12.2632 2.66675L11.4168 6.46623C10.9355 6.69787 10.4753 6.96466 10.034 7.26571L6.32048 6.09644L2.5835 12.5704L5.3986 15.1485C5.28861 15.9649 5.33843 16.3673 5.3986 16.8516L2.5835 19.4298L6.32048 25.9037L10.034 24.7345C10.4753 25.0355 10.9355 25.3023 11.4168 25.5339L12.2632 29.3334H19.7371L20.5835 25.5339C21.0649 25.3023 21.525 25.0355 21.9663 24.7345L25.6798 25.9037L29.4168 19.4298L26.6017 16.8516C26.6247 16.5682 26.6665 16.2846 26.6668 16.0001C26.6679 15.7069 26.6217 15.4109 26.6017 15.1485L29.4168 12.5704L25.6798 6.09644L21.9663 7.26571C21.525 6.96466 21.0649 6.69787 20.5835 6.46623L19.7371 2.66675H12.2632ZM14.4038 5.33341H17.5965L18.2554 8.29175L18.9168 8.55217C19.6651 8.84519 20.3645 9.24854 20.9923 9.75008L21.5496 10.1928L24.4403 9.28394L26.0366 12.0496L23.8022 14.099L23.909 14.8022C24.0347 15.5798 24.0103 16.4746 23.909 17.198L23.8022 17.9011L26.0366 19.9506L24.4403 22.7162L21.5496 21.8074L20.9923 22.2501C20.3645 22.7516 19.6651 23.155 18.9168 23.448L18.2554 23.7084L17.5965 26.6667H14.4038L13.745 23.7084L13.0835 23.448C12.3353 23.155 11.6358 22.7516 11.008 22.2501L10.4507 21.8074L7.56006 22.7162L5.9637 19.9506L8.19808 17.9011L8.09131 17.198C7.96108 16.4047 7.98107 15.4968 8.09131 14.8022L8.19808 14.099L5.9637 12.0496L7.56006 9.28394L10.4507 10.1928L11.008 9.75008C11.6358 9.24854 12.3353 8.84519 13.0835 8.55217L13.745 8.29175L14.4038 5.33341ZM16.0002 10.6667C13.0704 10.6667 10.6668 13.0704 10.6668 16.0001C10.6668 18.9298 13.0704 21.3334 16.0002 21.3334C18.9299 21.3334 21.3335 18.9298 21.3335 16.0001C21.3335 13.0704 18.9299 10.6667 16.0002 10.6667ZM16.0002 13.3334C17.4887 13.3334 18.6668 14.5115 18.6668 16.0001C18.6668 17.4886 17.4887 18.6667 16.0002 18.6667C14.5116 18.6667 13.3335 17.4886 13.3335 16.0001C13.3335 14.5115 14.5116 13.3334 16.0002 13.3334Z" fill="#A098AE"/>
</svg>
