<svg width="13" height="12" viewBox="0 0 13 12" fill="none" xmlns="http://www.w3.org/2000/svg">
<path d="M6.29985 0.463526C6.44953 0.00287068 7.10124 0.00286984 7.25091 0.463525L8.37395 3.91987C8.44088 4.12589 8.63286 4.26537 8.84947 4.26537L12.4837 4.26537C12.9681 4.26537 13.1694 4.88517 12.7776 5.16988L9.83744 7.30602C9.6622 7.43334 9.58887 7.65902 9.65581 7.86503L10.7788 11.3214C10.9285 11.782 10.4013 12.1651 10.0094 11.8804L7.06928 9.74426C6.89403 9.61694 6.65673 9.61694 6.48149 9.74426L3.54134 11.8804C3.14949 12.1651 2.62225 11.782 2.77192 11.3214L3.89496 7.86503C3.9619 7.65902 3.88857 7.43334 3.71332 7.30602L0.773178 5.16988C0.381321 4.88517 0.582708 4.26537 1.06707 4.26537L4.70129 4.26537C4.9179 4.26537 5.10988 4.12589 5.17682 3.91987L6.29985 0.463526Z" fill="#141414"/>
</svg>
