<svg width="11" height="11" viewBox="0 0 11 11" fill="none" xmlns="http://www.w3.org/2000/svg">
<path d="M5.06555 0.752587C5.21522 0.291932 5.86693 0.291933 6.0166 0.752588L6.94014 3.59493C7.00707 3.80094 7.19905 3.94042 7.41567 3.94042H10.4043C10.8886 3.94042 11.09 4.56023 10.6982 4.84493L8.28033 6.60159C8.10509 6.72891 8.03176 6.9546 8.0987 7.16061L9.02223 10.0029C9.1719 10.4636 8.64466 10.8467 8.25281 10.562L5.83497 8.8053C5.65973 8.67798 5.42243 8.67798 5.24718 8.8053L2.82934 10.562C2.43749 10.8467 1.91025 10.4636 2.05992 10.0029L2.98346 7.16061C3.05039 6.9546 2.97706 6.72891 2.80182 6.60159L0.383982 4.84493C-0.00787473 4.56023 0.193514 3.94042 0.677876 3.94042H3.66649C3.8831 3.94042 4.07508 3.80094 4.14202 3.59493L5.06555 0.752587Z" fill="#141414"/>
</svg>
