<svg width="12" height="11" viewBox="0 0 12 11" fill="none" xmlns="http://www.w3.org/2000/svg">
<path d="M5.25793 0.463525C5.40761 0.00286937 6.05931 0.00287044 6.20899 0.463526L7.13252 3.30587C7.19946 3.51188 7.39143 3.65136 7.60805 3.65136H10.5967C11.081 3.65136 11.2824 4.27116 10.8906 4.55587L8.47271 6.31253C8.29747 6.43985 8.22414 6.66553 8.29108 6.87154L9.21461 9.71388C9.36429 10.1745 8.83705 10.5576 8.44519 10.2729L6.02735 8.51624C5.85211 8.38892 5.61481 8.38892 5.43957 8.51624L3.02173 10.2729C2.62987 10.5576 2.10263 10.1745 2.25231 9.71388L3.17584 6.87154C3.24278 6.66553 3.16945 6.43985 2.9942 6.31253L0.576365 4.55586C0.184508 4.27116 0.385897 3.65136 0.870258 3.65136H3.85887C4.07548 3.65136 4.26746 3.51188 4.3344 3.30587L5.25793 0.463525Z" fill="#141414"/>
</svg>
