<svg width="20" height="20" viewBox="0 0 20 20" fill="none" xmlns="http://www.w3.org/2000/svg">
<path d="M9.99935 15.8337C10.8834 15.8337 11.7313 15.4825 12.3564 14.8573C12.9815 14.2322 13.3327 13.3844 13.3327 12.5003C13.3327 11.6163 12.9815 10.7684 12.3564 10.1433C11.7313 9.51818 10.8834 9.16699 9.99935 9.16699C9.11529 9.16699 8.26745 9.51818 7.64233 10.1433C7.01721 10.7684 6.66602 11.6163 6.66602 12.5003C6.66602 13.3844 7.01721 14.2322 7.64233 14.8573C8.26745 15.4825 9.11529 15.8337 9.99935 15.8337V15.8337Z" stroke="#828282" stroke-width="1.2" stroke-miterlimit="10" stroke-linecap="round" stroke-linejoin="round"/>
<path d="M8.69922 12.5003L9.24089 13.0419C9.39922 13.2003 9.65755 13.2086 9.81589 13.0503L11.2992 11.6836" stroke="#828282" stroke-width="1.2" stroke-linecap="round" stroke-linejoin="round"/>
<path d="M7.49937 18.3337H12.4994C15.8494 18.3337 16.4494 16.992 16.6244 15.3587L17.2494 10.3587C17.4744 8.32533 16.891 6.66699 13.3327 6.66699H6.66603C3.1077 6.66699 2.52437 8.32533 2.74937 10.3587L3.37437 15.3587C3.54937 16.992 4.14937 18.3337 7.49937 18.3337Z" stroke="#828282" stroke-width="1.2" stroke-miterlimit="10" stroke-linecap="round" stroke-linejoin="round"/>
<path d="M6.25 6.3918V5.58346C6.25 3.70846 7.75833 1.8668 9.63333 1.6918C10.1543 1.64061 10.6802 1.69907 11.1773 1.86341C11.6743 2.02775 12.1314 2.29434 12.5192 2.646C12.9069 2.99767 13.2168 3.42663 13.4288 3.90527C13.6408 4.38392 13.7502 4.90164 13.75 5.42513V6.57513" stroke="#828282" stroke-width="1.2" stroke-miterlimit="10" stroke-linecap="round" stroke-linejoin="round"/>
</svg>
