<svg width="22" height="22" viewBox="0 0 22 22" fill="none" xmlns="http://www.w3.org/2000/svg">
<path d="M10.9997 17.4169C11.9721 17.4169 12.9048 17.0306 13.5924 16.343C14.28 15.6553 14.6663 14.7227 14.6663 13.7503C14.6663 12.7778 14.28 11.8452 13.5924 11.1575C12.9048 10.4699 11.9721 10.0836 10.9997 10.0836C10.0272 10.0836 9.09458 10.4699 8.40695 11.1575C7.71932 11.8452 7.33301 12.7778 7.33301 13.7503C7.33301 14.7227 7.71932 15.6553 8.40695 16.343C9.09458 17.0306 10.0272 17.4169 10.9997 17.4169V17.4169Z" stroke="#2F80ED" stroke-width="1.5" stroke-miterlimit="10" stroke-linecap="round" stroke-linejoin="round"/>
<path d="M9.57031 13.7504L10.1661 14.3462C10.3403 14.5204 10.6245 14.5295 10.7986 14.3554L12.4303 12.8521" stroke="#2F80ED" stroke-width="1.5" stroke-linecap="round" stroke-linejoin="round"/>
<path d="M8.25009 20.1669H13.7501C17.4351 20.1669 18.0951 18.6911 18.2876 16.8944L18.9751 11.3944C19.2226 9.15775 18.5809 7.33359 14.6668 7.33359H7.33342C3.41925 7.33359 2.77759 9.15775 3.02509 11.3944L3.71259 16.8944C3.90509 18.6911 4.56509 20.1669 8.25009 20.1669Z" stroke="#2F80ED" stroke-width="1.5" stroke-miterlimit="10" stroke-linecap="round" stroke-linejoin="round"/>
<path d="M6.875 7.03108V6.14191C6.875 4.07941 8.53417 2.05357 10.5967 1.86107C11.1697 1.80477 11.7483 1.86908 12.295 2.04985C12.8417 2.23063 13.3445 2.52387 13.7711 2.9107C14.1976 3.29753 14.5385 3.76939 14.7717 4.2959C15.0048 4.82241 15.1252 5.39191 15.125 5.96774V7.23274" stroke="#2F80ED" stroke-width="1.5" stroke-miterlimit="10" stroke-linecap="round" stroke-linejoin="round"/>
</svg>
