<svg width="26" height="33" viewBox="0 0 26 33" fill="none" xmlns="http://www.w3.org/2000/svg">
<path d="M16.8022 3.89124H9.19717C6.49967 3.89124 5.90384 5.59624 5.55717 7.68624L4.33301 15.125H21.6663L20.4422 7.68624C20.0955 5.59624 19.4997 3.89124 16.8022 3.89124V3.89124Z" stroke="#2F80ED" stroke-width="1.5" stroke-linecap="round" stroke-linejoin="round"/>
<path d="M23.8225 27.2525C23.9416 28.8613 22.9233 30.25 21.6233 30.25H19.5866C18.4166 30.25 18.2541 29.6175 18.0483 28.8338L17.8316 28.0088C17.5283 26.8813 17.3333 26.125 15.7733 26.125H10.2266C8.66662 26.125 8.43913 26.9775 8.16829 28.0088L7.95163 28.8338C7.74579 29.6175 7.58329 30.25 6.41329 30.25H4.37663C3.07663 30.25 2.05829 28.8613 2.17746 27.2525L2.78413 18.8787C2.93579 16.8162 3.24996 15.125 6.08829 15.125H19.9116C22.75 15.125 23.0641 16.8162 23.2158 18.8787L23.8225 27.2525Z" stroke="#2F80ED" stroke-width="1.5" stroke-linecap="round" stroke-linejoin="round"/>
<path d="M4.33333 11H3.25" stroke="#2F80ED" stroke-width="1.5" stroke-linecap="round" stroke-linejoin="round"/>
<path d="M22.7503 11H21.667" stroke="#2F80ED" stroke-width="1.5" stroke-linecap="round" stroke-linejoin="round"/>
<path d="M13 4.125V6.875" stroke="#2F80ED" stroke-width="1.5" stroke-linecap="round" stroke-linejoin="round"/>
<path d="M11.375 6.875H14.625" stroke="#2F80ED" stroke-width="1.5" stroke-linecap="round" stroke-linejoin="round"/>
<path d="M6.5 20.625H9.75" stroke="#2F80ED" stroke-width="1.5" stroke-linecap="round" stroke-linejoin="round"/>
<path d="M16.25 20.625H19.5" stroke="#2F80ED" stroke-width="1.5" stroke-linecap="round" stroke-linejoin="round"/>
</svg>
