<svg width="121" height="22" viewBox="0 0 121 22" fill="none" xmlns="http://www.w3.org/2000/svg">
<path d="M20.0104 0.125122L1.85845 0.125122C0.866598 0.125122 0 0.838791 0 1.81899L0 20.0113C0 20.9968 0.866598 21.875 1.85845 21.875L20.0051 21.875C21.0023 21.875 21.7499 20.991 21.7499 20.0113L21.7499 1.81899C21.7557 0.838791 21.0023 0.125122 20.0104 0.125122ZM6.74199 18.2548L3.62612 18.2548L3.62612 8.56681L6.74199 8.56681L6.74199 18.2548ZM5.29183 7.09384H5.2695C4.27231 7.09384 3.62661 6.35152 3.62661 5.4223C3.62661 4.47608 4.2893 3.75124 5.30883 3.75124C6.32835 3.75124 6.95221 4.47074 6.97454 5.4223C6.97406 6.35152 6.32835 7.09384 5.29183 7.09384ZM18.1296 18.2548L15.0138 18.2548L15.0138 12.9576C15.0138 11.6885 14.5603 10.8214 13.433 10.8214C12.5717 10.8214 12.062 11.404 11.8353 11.9715C11.7503 12.1755 11.7275 12.4532 11.7275 12.7367L11.7275 18.2548L8.61161 18.2548L8.61161 8.56681L11.7275 8.56681L11.7275 9.91502C12.1809 9.26931 12.8893 8.34009 14.5375 8.34009C16.5829 8.34009 18.1301 9.68829 18.1301 12.5949L18.1296 18.2548Z" fill="white"/>
<path d="M70.2211 6.74416C69.4156 7.09386 68.5635 7.32426 67.6915 7.42806C68.6079 6.89183 69.297 6.03995 69.6297 5.03217C68.7633 5.53843 67.817 5.89365 66.8313 6.08261C66.4162 5.64792 65.9171 5.30211 65.3641 5.06621C64.8111 4.8303 64.2159 4.70922 63.6147 4.71033C61.1804 4.71033 59.2104 6.65029 59.2104 9.04171C59.2087 9.37434 59.2468 9.70599 59.324 10.0296C57.5785 9.94779 55.8692 9.50282 54.3056 8.72311C52.742 7.94341 51.3585 6.84614 50.2436 5.50151C49.8524 6.16044 49.6456 6.91225 49.6446 7.67837C49.6446 9.18027 50.4288 10.5078 51.6128 11.2856C50.9113 11.269 50.2242 11.0834 49.6097 10.7448L49.6097 10.7984C49.6097 12.8993 51.1306 14.647 53.1435 15.0448C52.765 15.1457 52.3749 15.1968 51.9832 15.1968C51.7052 15.1973 51.4279 15.1703 51.1552 15.1164C51.7148 16.8373 53.3435 18.0889 55.2727 18.1246C53.7051 19.3319 51.7804 19.9844 49.8012 19.9796C49.4499 19.9791 49.0989 19.9582 48.75 19.9171C50.7634 21.2018 53.1039 21.8814 55.4928 21.8749C63.6053 21.8749 68.0373 15.2728 68.0373 9.54681C68.0373 9.35907 68.0323 9.17133 68.0234 8.98807C68.8836 8.3766 69.6278 7.61674 70.2211 6.74416Z" fill="white"/>
<path fill-rule="evenodd" clip-rule="evenodd" d="M120.221 11.2328C120.221 5.28435 115.071 0.461182 108.721 0.461182C102.37 0.461182 97.2207 5.28435 97.2207 11.2328C97.2207 16.6089 101.425 21.0652 106.924 21.874L106.924 14.3474L104.003 14.3474V11.2328L106.924 11.2328V8.85964C106.924 6.1605 108.641 4.66835 111.268 4.66835C112.526 4.66835 113.842 4.87897 113.842 4.87897V7.53003L112.391 7.53003C110.964 7.53003 110.517 8.36001 110.517 9.21308V11.2328L113.706 11.2328L113.197 14.3474L110.518 14.3474L110.518 21.875C116.016 21.0666 120.221 16.6104 120.221 11.2328Z" fill="white"/>
</svg>
