<svg width="221" height="436" viewBox="0 0 221 436" fill="none" xmlns="http://www.w3.org/2000/svg">
<g clip-path="url(#clip0_6_1358)">
<path d="M132.975 436C179.304 436 216.862 431.801 216.862 426.621C216.862 421.44 179.304 417.241 132.975 417.241C86.6454 417.241 49.0879 421.44 49.0879 426.621C49.0879 431.801 86.6454 436 132.975 436Z" fill="black" fill-opacity="0.1"/>
<path d="M176.813 45.5698C176.813 45.5698 172.181 51.4954 174.12 53.4166C176.059 55.3378 183.796 61.5009 185.052 57.4425L176.813 45.5698Z" fill="#EF7D78"/>
<path d="M200.374 58.5219C200.374 58.5219 200.374 46.0663 186.336 36.5465C186.336 36.5465 180.636 29.1962 177.109 28.1816C173.582 27.167 166.096 28.3651 166.527 31.3549C166.957 34.3446 171.517 34.69 174.838 34.8303C178.159 34.9707 178.832 39.2449 178.832 39.2449C178.832 39.2449 174.21 44.7063 174.838 47.4694C175.048 48.2794 175.42 49.0155 175.921 49.6136C176.421 50.2118 177.035 50.6539 177.71 50.9017C177.71 50.9017 178.051 53.5245 181.776 54.5499C182.289 56.198 183.234 57.6001 184.469 58.5435C185.135 58.9557 185.862 59.2016 186.609 59.2666C187.356 59.3315 188.106 59.214 188.813 58.9212C188.813 58.9212 189.621 70.1788 200.374 58.5219Z" fill="#FDA092"/>
<path d="M178.114 49.8548C179.522 46.1801 181.684 42.9969 184.397 40.6048" stroke="#D04949" stroke-width="1.32" stroke-linecap="round" stroke-linejoin="round"/>
<path d="M182.001 53.4166C183.424 50.1202 185.514 47.3068 188.078 45.2352" stroke="#D04949" stroke-width="1.32" stroke-linecap="round" stroke-linejoin="round"/>
<path d="M188.077 54.6255C188.077 54.6255 190.563 56.687 192.78 55.9423" stroke="#D04949" stroke-width="1.32" stroke-linecap="round" stroke-linejoin="round"/>
<path d="M190.429 56.1042L189.056 58.5219" stroke="#D04949" stroke-width="1.32" stroke-linecap="round" stroke-linejoin="round"/>
<path d="M197.681 61.026L200.374 57.4426C200.374 57.4426 224.168 105.808 220.65 117.702C218.307 125.614 191.12 124.254 191.12 124.254L188.176 92.9529L200.042 94.464L189.738 61.8786L197.681 61.026Z" fill="#FDA092"/>
<path d="M195.751 93.9567L204.996 123.941C200.375 124.331 195.741 124.435 191.111 124.254L188.167 92.9529L195.751 93.9567Z" fill="#EF7D78"/>
<path d="M107.08 394.132C103.176 404.667 100.277 415.719 100.079 428.229L136.754 428.445C136.915 416.647 132.751 406.091 126.306 397.014L107.08 394.132Z" fill="#3D6A9F"/>
<path d="M135.892 418.698L100.698 419.151C100.335 422.159 100.128 425.19 100.079 428.229L136.754 428.445C136.792 425.174 136.49 421.911 135.856 418.731L135.892 418.698Z" fill="#D4EFF9"/>
<path d="M136.754 295.211L126.037 399.648C119.484 403.102 112.833 402.551 106.102 398.892L111.559 295.459L136.754 295.211Z" fill="#FDA092"/>
<path d="M135.138 311.012C126.945 310.125 118.865 308.104 111.057 304.99L111.559 295.459L136.754 295.211L135.138 311.012Z" fill="#EF7D78"/>
<path d="M147.758 397.014L166.526 399.54C178.114 401.828 185.133 408.175 189.36 423.134L141.897 422.681C141.645 414.305 143.692 403.782 147.758 397.014Z" fill="#3D6A9F"/>
<path d="M142.121 416.151L187.798 418.31C188.355 419.799 188.876 421.396 189.36 423.102L141.897 422.681C141.835 420.501 141.91 418.318 142.121 416.151Z" fill="#D4EFF9"/>
<path d="M174.21 289.717L166.598 400.889C160.077 402.636 153.284 402.241 146.933 399.745L149.078 295.459L174.21 289.717Z" fill="#FDA092"/>
<path d="M172.917 307.979C164.968 310.099 156.867 311.281 148.728 311.509L149.069 295.459L174.21 289.717L172.962 308.066L172.917 307.979Z" fill="#EF7D78"/>
<path d="M109.046 220.11L102.996 295.912C116.816 300.309 131.123 302.076 145.397 301.147L145.73 298.136C157.218 300.759 168.932 302.593 180.735 301.244L178.76 219.214C157.362 223.985 133.244 222.128 109.028 220.153L109.046 220.11Z" fill="#E4B586"/>
<path d="M178.886 223.456C163.17 227.881 134.007 234.023 108.382 228.453L109.046 220.11C133.281 222.085 157.38 223.942 178.778 219.171L178.886 223.488V223.456Z" fill="#CF9168"/>
<path d="M145.766 298.147L149.356 255.081L160.513 253.419C155.639 255.761 155.253 293.214 164.705 301.309L163.098 301.179C158.727 300.629 159.014 300.672 154.365 299.917L145.748 298.147H145.766Z" fill="#CF9168"/>
<path d="M129.457 241.146L131.342 241.2C132.55 239.369 133.861 237.638 135.264 236.02C133.456 237.33 131.736 238.81 130.121 240.445L129.457 241.146Z" fill="#B0AB1E"/>
<path d="M140.658 240.974L139.339 238.114L138.899 237.239L138.647 236.71L138.235 235.933L137.49 234.455L136.457 232.598L136.08 231.886L135.883 231.551C135.12 230.202 134.348 228.918 133.594 227.709L133.504 227.558L133.154 227.018L131.889 225.053L131.296 224.19L130.982 223.715L130.632 223.229L130.094 222.441L128.873 220.769L128.586 220.38L128.379 220.099L128.056 219.689L126.387 217.53L125.615 216.613L125.292 216.203L124.951 215.825C124.161 214.875 123.443 214.077 122.832 213.418L120.615 211.162C128.254 217.185 133.819 225.939 137.472 233.192C138.742 235.7 139.901 238.287 140.945 240.941H140.658V240.974Z" fill="#B0AB1E"/>
<path d="M103.05 236.505L101.255 239.085L103.472 235.847L103.795 235.415L104.971 233.839L105.518 233.149L105.806 232.771L106.12 232.393L106.622 231.756L107.735 230.439L107.996 230.126L108.184 229.911L108.48 229.597L109.988 227.914L110.688 227.201L110.976 226.888L111.281 226.597C111.999 225.863 112.645 225.248 113.184 224.751L115.158 223.057C110.531 226.166 106.437 230.305 103.095 235.253L102.978 236.484L103.05 236.505Z" fill="#B0AB1E"/>
<path d="M142.481 235.437V235.749H140.955L142.49 235.404L142.481 235.437Z" fill="#B0AB1E"/>
<path d="M142.535 232.307H142.373L142.535 232.21V232.307Z" fill="#B0AB1E"/>
<path d="M170.269 237.908H170.494L170.548 234.185L170.601 233.224V232.641L170.664 231.778L170.745 230.137L170.925 228.032L170.979 227.245L171.023 226.845C171.158 225.313 171.329 223.845 171.517 222.431V222.258L171.616 221.632L171.948 219.322L172.127 218.243L172.217 217.682L172.325 217.099L172.495 216.16L172.899 214.12L172.989 213.656L173.061 213.31L173.186 212.803L173.797 210.148L174.102 208.982L174.219 208.475L174.362 207.989C174.685 206.78 174.991 205.744 175.26 204.891L176.283 201.88C172.1 210.731 170.664 220.974 170.278 228.993C170.14 231.955 170.14 234.925 170.278 237.887L170.269 237.908Z" fill="#B0AB1E"/>
<path d="M176.31 235.836L175.412 236.095C163.017 239.409 142.588 238.2 120.66 236.095L119.628 235.998V95.6836L173.258 93.73L175.277 187.579L175.825 212.976L176.31 235.836Z" fill="#EAEAEA"/>
<path d="M176.31 187.179L175.817 213.019L175.377 236.095C162.981 239.409 142.553 238.2 120.625 236.095L131.127 130.697C131.127 130.697 145.075 199.333 175.242 187.622L176.31 187.179Z" fill="#DFDFDF"/>
<path d="M132.795 74.2587C132.795 74.2587 134.851 86.4984 130.336 90.179C130.336 90.179 137.005 110.762 150.451 107.88C163.896 104.998 158.529 91.1288 158.529 91.1288L153.673 87.8908C153.673 87.8908 152.865 86.0667 152.533 79.5259L132.795 74.2587Z" fill="#FDA092"/>
<path d="M133.244 81.5227C137.499 87.6749 146.519 97.2919 158.511 91.0964L153.7 87.8584C153.7 87.8584 152.892 86.0343 152.56 79.4935L132.813 74.2371C133.174 76.64 133.319 79.0826 133.244 81.5227Z" fill="#EF7D78"/>
<path d="M166.508 49.3043C170.35 48.6351 173.824 51.0744 174.273 54.701C174.721 58.3276 171.966 61.911 168.133 62.591C164.3 63.271 160.827 60.8209 160.378 57.1403C159.929 53.4598 162.676 49.9843 166.508 49.3043Z" fill="#EF7D78"/>
<path d="M139.384 18.5323C159.831 15.2943 163.906 26.8324 166.428 44.4365C168.95 62.0406 164.687 80.0548 152.444 82.5372C139.034 85.3004 127.922 73.5787 125.4 55.9747C122.878 38.3706 127.069 20.5075 139.384 18.5323Z" fill="#FDA092"/>
<path d="M121.953 64.2208C121.953 64.2208 114.584 45.9584 117.707 31.9809C120.831 18.0034 129.797 1.44633 134.671 1.6514C139.545 1.85648 137.14 7.24239 137.14 7.24239C137.14 7.24239 144.401 -1.12251 150.935 0.12953C157.47 1.38157 154.687 5.38592 154.687 5.38592C154.687 5.38592 162.765 2.87106 165.664 7.10207C168.564 11.3331 164.65 18.1221 164.65 18.1221C164.65 18.1221 169.048 17.1507 170.852 21.7056C172.746 26.4978 168.16 32.499 168.16 32.499C168.67 40.9791 168.278 49.5029 166.993 57.8635C166.58 47.8364 166.275 41.2848 163.313 31.9593C153.565 30.6749 143.342 31.6895 132.122 33.7078L131.377 48.4408C129.968 54.701 128.298 58.9428 129.474 64.21L121.953 64.2208Z" fill="#573333"/>
<path d="M124.96 12.5527C128.362 6.0767 132.087 1.54347 134.672 1.6514C139.546 1.86727 137.14 7.24239 137.14 7.24239C137.14 7.24239 144.401 -1.12251 150.936 0.12953C157.47 1.38157 154.688 5.38592 154.688 5.38592C154.688 5.38592 162.766 2.87106 165.665 7.10208C168.564 11.3331 164.651 18.1222 164.651 18.1222C164.651 18.1222 169.049 17.1507 170.853 21.7056C171.178 22.5498 171.335 23.4739 171.311 24.4039C170.475 22.825 169.273 21.5748 167.854 20.8076C166.434 20.0404 164.859 19.7897 163.322 20.0866C164.947 1.67299 153.709 8.59157 153.709 8.59157C151.151 -3.97197 136.709 11.1172 136.709 11.1172C135.3 4.4469 129.439 8.3649 124.96 12.6067V12.5527Z" fill="#784E47"/>
<path d="M131.799 26.282L130.165 25.9258L124.564 63.8754L126.198 64.2208L131.799 26.282Z" fill="#E43B3F"/>
<path d="M146.968 25.8934C146.805 25.1364 146.439 24.4651 145.927 23.983C145.421 23.4816 144.788 23.2036 144.132 23.195H131.18C130.905 23.1844 130.632 23.25 130.381 23.3866C130.131 23.5232 129.91 23.7273 129.735 23.983C129.572 24.2558 129.463 24.5692 129.415 24.9C129.366 25.2307 129.381 25.5703 129.457 25.8934C129.726 27.2534 130.076 28.9911 130.444 30.8152C131.099 33.71 132.502 36.2793 134.451 38.1517C136.401 40.024 138.794 41.1024 141.287 41.2308C146.125 41.2308 149.114 36.5681 147.956 30.8152C147.588 28.9911 147.247 27.2534 146.968 25.8934Z" fill="#E43B3F"/>
<path d="M146.052 28.3867C145.906 27.7363 145.592 27.1588 145.154 26.7377C144.717 26.3167 144.18 26.0739 143.62 26.0445H132.849C132.607 26.0285 132.366 26.0836 132.146 26.2049C131.926 26.3262 131.734 26.5101 131.587 26.7408C131.439 26.9714 131.34 27.2418 131.299 27.5286C131.258 27.8154 131.275 28.1099 131.35 28.3867C131.485 29.0343 131.637 29.7898 131.79 30.5454C132.337 32.9806 133.515 35.1429 135.153 36.7187C136.792 38.2946 138.804 39.2021 140.9 39.3096C144.948 39.3096 147.453 35.4024 146.492 30.5777C146.384 29.7898 146.187 29.0343 146.052 28.3867Z" fill="#214E78"/>
<path d="M144.509 27.9118C144.453 27.6732 144.336 27.4616 144.175 27.3068C144.014 27.1519 143.817 27.0615 143.611 27.0483H137.328C137.239 27.0411 137.149 27.0604 137.067 27.1047C136.985 27.1489 136.914 27.2166 136.859 27.3019C136.804 27.3872 136.767 27.4874 136.752 27.5938C136.737 27.7001 136.744 27.8093 136.772 27.9118V28.0629C136.828 28.3015 136.944 28.513 137.105 28.6679C137.266 28.8227 137.463 28.9131 137.669 28.9263H143.997C144.087 28.9336 144.176 28.9142 144.258 28.87C144.34 28.8258 144.412 28.758 144.467 28.6727C144.522 28.5875 144.558 28.4872 144.573 28.3809C144.589 28.2745 144.582 28.1653 144.554 28.0629L144.509 27.9118Z" fill="#CADFF4"/>
<path d="M167.487 25.8934C167.32 25.1384 166.955 24.4683 166.446 23.983C165.94 23.4816 165.306 23.2036 164.651 23.195H151.699C151.424 23.1844 151.15 23.25 150.9 23.3866C150.649 23.5232 150.428 23.7273 150.254 23.983C150.091 24.2558 149.981 24.5692 149.933 24.9C149.885 25.2307 149.899 25.5703 149.975 25.8934C150.245 27.2534 150.595 28.9911 150.963 30.8152C151.617 33.71 153.021 36.2793 154.97 38.1517C156.919 40.024 159.313 41.1024 161.805 41.2308C166.643 41.2308 169.623 36.5681 168.474 30.8152C168.106 28.9911 167.765 27.2534 167.487 25.8934Z" fill="#E43B3F"/>
<path d="M166.571 28.3867C166.425 27.7363 166.11 27.1588 165.673 26.7377C165.236 26.3167 164.698 26.0739 164.139 26.0445H153.368C153.126 26.0285 152.885 26.0836 152.665 26.2049C152.445 26.3262 152.253 26.5101 152.105 26.7408C151.957 26.9714 151.859 27.2418 151.818 27.5286C151.776 27.8154 151.794 28.1099 151.869 28.3867C152.003 29.0343 152.147 29.7898 152.308 30.5454C152.856 32.9806 154.034 35.1429 155.672 36.7187C157.31 38.2946 159.323 39.2021 161.419 39.3096C165.476 39.3096 167.98 35.4024 167.011 30.5777C166.858 29.7898 166.706 29.0343 166.571 28.3867Z" fill="#214E78"/>
<path d="M165.027 27.9118C164.971 27.6732 164.855 27.4616 164.694 27.3068C164.533 27.1519 164.335 27.0615 164.13 27.0483H157.784C157.695 27.0437 157.606 27.0647 157.526 27.1097C157.445 27.1547 157.374 27.2224 157.32 27.3069C157.265 27.3915 157.228 27.4906 157.212 27.5958C157.196 27.7011 157.201 27.8094 157.227 27.9118C157.231 27.962 157.231 28.0126 157.227 28.0629C157.283 28.3015 157.4 28.513 157.561 28.6679C157.722 28.8227 157.919 28.9131 158.125 28.9264H164.408C164.497 28.9336 164.587 28.9142 164.669 28.87C164.751 28.8258 164.822 28.758 164.877 28.6727C164.932 28.5875 164.969 28.4872 164.984 28.3809C164.999 28.2745 164.992 28.1653 164.964 28.0629L165.027 27.9118Z" fill="#CADFF4"/>
<path d="M151.976 23.67C149.562 22.7686 146.977 22.7686 144.562 23.67V26.0445C146.965 25.056 149.573 25.056 151.976 26.0445V23.67Z" fill="#E43B3F"/>
<path d="M126.001 51.83C130.157 52.3481 133.263 55.9315 132.931 59.8279C132.598 63.7243 128.945 66.4659 124.79 65.9586C120.634 65.4513 117.528 61.8571 117.86 57.9606C118.192 54.0642 121.845 51.3227 126.001 51.83Z" fill="#FDA092"/>
<path d="M146.08 42.5476C140.398 40.8207 136.988 43.627 135.381 48.484C138.406 46.028 142.076 44.9947 145.694 45.5806L146.08 42.5476Z" fill="#573333"/>
<path d="M156.985 41.9864C161.401 40.6372 165.063 41.0474 165.386 46.7571C163.205 43.8752 159.651 44.0263 156.617 45.5374L156.985 41.9864Z" fill="#573333"/>
<path d="M156.043 46.7571C154.571 53.5137 157.838 58.6298 158.018 60.1301C158.197 61.6304 156.959 63.4653 155.792 64.5878" stroke="#D04949" stroke-width="1.27" stroke-linecap="round" stroke-linejoin="round"/>
<path d="M142.211 56.6438C142.925 56.6438 143.504 55.5759 143.504 54.2585C143.504 52.9411 142.925 51.8732 142.211 51.8732C141.498 51.8732 140.919 52.9411 140.919 54.2585C140.919 55.5759 141.498 56.6438 142.211 56.6438Z" fill="#30385B"/>
<path d="M160.54 51.8839C161.258 51.8839 161.841 52.9633 161.841 54.2585C161.841 55.5537 161.258 56.6438 160.54 56.6438C159.822 56.6438 159.247 55.5645 159.247 54.2585C159.247 52.9525 159.848 51.8839 160.54 51.8839Z" fill="#30385B"/>
<path d="M155.665 68.1604C152.165 68.5274 148.305 66.8544 144.329 64.5878C144.329 64.5878 142.938 73.3736 147.919 75.1114C155.235 77.6802 155.665 68.1604 155.665 68.1604Z" fill="white"/>
<path d="M132.024 86.2502C141.816 117.67 144.105 172.91 142.382 240.855C129.145 242.091 115.829 240.631 102.996 236.538C108.157 189.576 109.324 143.164 108.857 99.4613C115.634 93.7408 119.969 90.7079 132.024 86.3473V86.2502Z" fill="#B0AB1E"/>
<path d="M139.07 121.696C139.07 121.696 138.98 100.519 132.329 85.268C132.329 85.268 124.7 87.0489 121.854 91.0425L123.515 113.406C123.515 113.406 133.541 112.597 139.07 121.696Z" fill="#DFD153"/>
<path d="M127.536 241.082C126.368 239.155 125.406 237.059 124.673 234.843L126.288 233.656L127.904 232.576L126.109 233.289C125.535 233.548 124.978 233.85 124.422 234.174L123.703 231.918C123.443 231.001 123.192 230.072 122.941 229.155L122.456 227.05C123.689 226.72 124.945 226.528 126.208 226.478H128.102L129.951 226.705L128.003 225.917C126.051 225.186 124.016 224.822 121.971 224.838L121.675 223.51L120.777 218.793C121.94 218.768 123.102 218.894 124.242 219.171L122.447 218.405L120.652 217.854C119.916 213.245 119.602 209.921 119.602 209.921C122.209 209.993 124.786 210.617 127.213 211.767V213.364L127.339 214.983L127.563 211.918C130.138 213.052 132.625 214.457 134.995 216.117L134.474 217.887L134.061 219.732C134.447 218.653 134.896 217.487 135.39 216.386L137.104 217.671L138.074 218.491C136.889 220.561 135.902 222.784 135.13 225.118C136.287 223.066 137.656 221.198 139.205 219.56C140.468 220.695 141.64 221.97 142.705 223.37L142.543 232.339L142.382 232.436H142.543L142.49 235.523L140.955 235.868H142.481L142.391 240.952L140.955 241.049C139.911 238.395 138.751 235.808 137.481 233.3C133.828 226.046 128.263 217.293 120.625 211.27L122.842 213.526C123.452 214.185 124.17 214.983 124.96 215.933L125.301 216.311L125.624 216.721L126.396 217.638L128.066 219.797L128.389 220.207L128.595 220.488L128.873 220.876L130.103 222.549L130.642 223.337L130.992 223.823L131.297 224.298L131.898 225.161L133.164 227.126L133.514 227.665L133.604 227.817C134.358 229.025 135.13 230.31 135.884 231.659L136.09 231.994L136.467 232.706L137.499 234.562L138.244 236.041L138.657 236.818L138.908 237.347L139.348 238.221L140.668 241.082C137.598 241.319 134.492 241.416 131.351 241.341C132.559 239.509 133.87 237.778 135.273 236.16C133.465 237.47 131.745 238.95 130.13 240.585L129.466 241.287H128.075L127.509 241.233L127.536 241.082Z" fill="#E3D85C"/>
<path d="M107.394 180.639C108.58 179.66 109.857 178.852 111.2 178.232C112.057 180.225 112.713 182.334 113.157 184.513C113.051 182.234 112.75 179.973 112.259 177.768L113.157 177.379L114.763 176.829C114.916 177.908 115.042 179.084 115.104 180.185L115.167 178.448L115.122 176.721C117.308 176.065 119.541 175.671 121.791 175.544L121.334 178.275L121.773 176.915L122.123 175.533C124.247 175.343 126.382 175.655 128.406 176.451C128.406 176.451 127.509 179.235 125.956 183.002L124.412 182.873L122.859 182.938C123.81 183.088 124.743 183.367 125.642 183.769L123.999 187.59L123.497 188.669C121.917 187.974 120.251 187.609 118.569 187.59H116.882L118.381 188.01L119.862 188.604C120.85 189.062 121.794 189.644 122.68 190.342L121.872 192.015L120.705 194.174L119.682 195.9C119.314 195.436 118.937 194.994 118.542 194.573L117.321 193.375L118.372 194.821L119.386 196.386C118.169 198.442 116.669 200.235 114.952 201.686L113.947 199.473C113.026 197.531 111.988 195.673 110.841 193.914C111.954 196.708 112.899 199.593 113.668 202.549L113.22 202.797L112.098 203.24L111.029 203.499C110.965 202.553 110.854 201.612 110.697 200.682L110.356 198.739L110.5 201.103C110.5 201.923 110.545 202.743 110.5 203.564C108.969 203.736 107.425 203.556 105.949 203.035L106.084 201.416L106.461 195.285L107.197 194.368L107.717 193.753L108.023 193.375L108.507 192.835L109.405 191.756L110.59 190.482L111.029 189.986L111.254 189.759C112.151 188.831 112.986 187.967 113.83 187.169L113.929 187.061L114.315 186.715L115.706 185.42L116.352 184.87L116.693 184.557L117.061 184.254L117.645 183.747L118.946 182.668L119.242 182.43L119.467 182.258L119.808 182.009L121.612 180.703L122.402 180.153L122.743 179.905L123.084 179.689C123.901 179.128 124.628 178.663 125.238 178.296L127.437 177.066C120.257 179.786 114.081 185.56 109.737 190.655C108.534 192.058 107.475 193.418 106.578 194.648L107.242 183.963L107.394 180.595V180.639Z" fill="#E3D85C"/>
<path d="M104.199 224.859C105.887 223.976 107.639 223.279 109.432 222.776V225.561L109.656 224.125L109.791 222.69C111.865 222.027 114.027 221.858 116.155 222.193C116.155 222.193 115.661 225.14 114.736 229.177L113.202 229.392L111.685 229.803C112.642 229.733 113.603 229.798 114.548 229.997L113.525 234.12L113.184 235.264C111.527 234.919 109.832 234.919 108.175 235.264L106.524 235.685L108.059 235.761L109.602 236.02C110.642 236.251 111.659 236.612 112.636 237.099L112.116 238.869L108.22 237.952L103.131 236.484L103.571 235.836L103.894 235.404L105.07 233.829L105.617 233.138L105.904 232.76L106.219 232.382L106.721 231.745L107.834 230.429L108.094 230.116L108.283 229.9L108.579 229.587L110.087 227.903L110.787 227.191L111.074 226.878L111.38 226.586C112.098 225.852 112.744 225.237 113.291 224.741L115.257 223.046C110.629 226.155 106.535 230.294 103.194 235.242L104.235 224.838L104.199 224.859Z" fill="#E3D85C"/>
<path d="M129.915 137.53C128.564 136.877 127.114 136.575 125.66 136.645C125.66 136.645 125.759 138.803 126.064 141.825L127.078 142.106L128.066 142.538C127.426 142.403 126.774 142.37 126.127 142.441L126.486 145.506L126.63 146.37C127.766 146.259 128.911 146.402 130.004 146.79L131.082 147.222L130.04 147.157L128.981 147.222C128.255 147.307 127.538 147.488 126.845 147.762L127.069 149.122C127.186 149.715 127.303 150.32 127.428 150.914L127.778 152.371C128.102 152.133 128.425 151.907 128.748 151.712L129.762 151.162L128.82 151.928L127.922 152.77C128.327 154.484 128.973 156.101 129.834 157.551L130.875 156.245C131.82 155.117 132.827 154.068 133.891 153.105C132.662 154.812 131.529 156.614 130.498 158.501L130.749 158.793L131.387 159.365L132.033 159.807C132.257 159.149 132.491 158.523 132.751 157.908L133.325 156.634L132.814 158.253C132.643 158.814 132.482 159.397 132.338 159.969C134.22 160.836 136.289 160.924 138.217 160.217C139.037 157.793 139.604 155.255 139.905 152.662H139.51C138.709 152.578 137.902 152.596 137.104 152.716C138.039 152.347 139.001 152.084 139.976 151.928L140.021 151.162C140.021 150.784 140.021 150.417 140.021 150.082V149.64L138.998 150.007L138.011 150.46C138.64 149.967 139.303 149.541 139.994 149.187C139.941 148.424 139.805 147.673 139.59 146.952C138.922 145.058 137.87 143.396 136.53 142.117C135.614 143.317 134.81 144.635 134.133 146.046C134.615 144.482 135.216 142.976 135.928 141.545L135.399 141.048L134.501 140.282C134.196 141.027 133.918 141.793 133.676 142.549L133.945 141.307L134.286 140.12C132.999 139.132 131.626 138.314 130.193 137.681L129.995 139.71V138.631V137.551L129.915 137.53ZM127.393 138.739L126.19 137.357C130.354 140.994 133.281 146.521 135.165 151.14C136.256 153.814 137.157 156.594 137.858 159.451L136.961 156.785L136.063 154.292L135.839 153.731L135.713 153.396L135.498 152.9L135.112 151.96L134.582 150.784L134.385 150.331L134.277 150.115C133.882 149.262 133.478 148.453 133.083 147.686L133.038 147.589L132.922 147.244L132.257 146.003L131.943 145.452L131.782 145.161L131.593 144.858L131.315 144.362L130.66 143.283L130.516 143.045L130.462 142.97L130.399 142.862L130.229 142.613L129.331 141.275L128.918 140.692L128.748 140.444L128.559 140.206C128.137 139.613 127.752 139.127 127.428 138.706L127.393 138.739Z" fill="#E3D85C"/>
<path d="M106.578 194.735V195.318L107.314 194.4L107.835 193.785L108.14 193.407L108.625 192.868L109.522 191.788L110.707 190.515L111.147 190.018L111.371 189.791C112.269 188.863 113.103 188 113.947 187.201L114.046 187.093L114.432 186.748L115.823 185.452L116.469 184.902L116.81 184.589L117.178 184.287L117.762 183.779L119.063 182.7L119.36 182.463L119.584 182.29L119.925 182.042L121.612 180.703L122.402 180.153L122.743 179.905L123.084 179.689C123.901 179.128 124.628 178.663 125.239 178.296L127.438 177.066C120.257 179.786 114.082 185.56 109.738 190.655C108.535 192.058 107.476 193.418 106.578 194.648V194.735Z" fill="#B0AB1E"/>
<path d="M166.509 94.356V87.88L194.854 92.6615L198.974 133.558C189.101 135.792 180.322 137.789 174.246 138.954L166.509 94.356Z" fill="#D4C548"/>
<path d="M154.015 86.2502C166.356 139.397 169.695 190.525 168.681 238.103C173.289 237.733 177.868 236.947 182.378 235.75C186.049 179.851 180.583 134.561 175.323 89.445C168.278 87.8705 161.164 86.7894 154.015 86.207V86.2502Z" fill="#B0AB1E"/>
<path d="M152.946 85.268L161.15 121.696C163.232 116.022 167.05 111.531 171.813 109.154C171.813 109.154 165.234 90.5783 163.591 87.88C161.949 85.1816 155.172 84.8147 152.946 85.268Z" fill="#DFD153"/>
<path d="M168.663 208.831L170.745 205.949L172.065 208.507L171.58 207.039L171.015 205.636C172.63 203.483 174.57 201.718 176.732 200.434C176.732 200.434 177.693 203.467 178.779 207.816L177.441 209.155L176.221 210.666C177.082 209.893 178.012 209.238 178.994 208.712L180.026 213.213L180.26 214.498C178.538 215.439 176.956 216.711 175.574 218.264L174.21 219.873C174.695 219.506 175.188 219.149 175.682 218.793L177.253 217.876C178.334 217.307 179.462 216.877 180.619 216.591L180.996 218.642C181.121 219.56 181.247 220.488 181.382 221.405L181.606 223.704C181.023 223.704 180.439 223.704 179.865 223.704L178.123 223.931L179.919 224.06L181.714 224.33C181.989 227.09 181.874 229.885 181.373 232.598L179.192 231.821C177.237 231.174 175.245 230.701 173.232 230.407C175.853 231.535 178.403 232.891 180.861 234.465L180.655 235.091L180.071 236.354L179.703 236.451L178.294 236.721L177.298 235.793L175.817 234.606L177.396 236.311L177.809 236.818L176.517 237.067L170.512 237.854L170.566 234.131L170.62 233.17V232.587L170.683 231.724L170.763 230.083L170.943 227.979L170.997 227.191L171.042 226.791C171.176 225.259 171.347 223.791 171.535 222.377V222.204L171.634 221.578L171.966 219.268L172.146 218.189L172.235 217.628L172.343 217.045L172.514 216.106L172.918 214.066L173.007 213.602L173.079 213.256L173.205 212.749L173.815 210.094L174.12 208.928L174.237 208.421L174.381 207.935C174.704 206.726 175.009 205.69 175.278 204.837L176.301 201.826C172.119 210.677 170.683 220.92 170.297 228.939C170.159 231.901 170.159 234.871 170.297 237.833L168.708 238.038L168.87 220.65L169.3 220.93L168.87 220.509V220.035L168.681 208.766L168.663 208.831Z" fill="#E3D85C"/>
<path d="M172.791 132.273C173.867 131.413 175.098 130.873 176.382 130.697C176.382 130.697 176.714 132.856 177.019 135.76L176.175 136.202L175.385 136.785C175.929 136.55 176.497 136.408 177.073 136.364L177.342 139.375V140.228C176.333 140.312 175.349 140.646 174.452 141.21L173.554 141.815L174.452 141.577L175.35 141.448C176.011 141.411 176.673 141.465 177.324 141.61L177.396 142.959V144.74V146.208C177.073 146.024 176.741 145.873 176.418 145.733L175.43 145.387L176.4 145.949L177.387 146.618C177.368 148.299 177.11 149.963 176.624 151.54L175.457 150.46C174.421 149.541 173.335 148.705 172.208 147.956C173.618 149.387 174.955 150.918 176.211 152.543L176.05 152.856L175.592 153.526L175.116 154.054C174.793 153.461 174.47 152.899 174.12 152.349L173.366 151.27L174.129 152.738C174.389 153.256 174.632 153.817 174.874 154.303C173.356 155.467 171.532 155.91 169.758 155.544C168.576 153.363 167.597 151.032 166.841 148.593L167.182 148.507C167.874 148.274 168.59 148.15 169.309 148.14C168.421 147.939 167.519 147.848 166.616 147.87L166.428 147.136C166.356 146.78 166.284 146.423 166.203 146.056L166.149 145.625L167.11 145.808L168.07 146.078C167.434 145.707 166.77 145.41 166.087 145.193C166.019 144.438 166.034 143.676 166.132 142.926C166.343 141.04 166.962 139.254 167.927 137.746C168.972 138.75 169.931 139.878 170.79 141.113C170.061 139.698 169.238 138.355 168.331 137.098L168.699 136.537L169.372 135.63C169.785 136.299 170.18 136.99 170.53 137.67L170.054 136.526L169.533 135.447C170.472 134.286 171.52 133.261 172.657 132.392L173.222 134.313L173.052 133.234L172.827 132.219L172.791 132.273ZM175.242 133.018L176.023 131.475C173.061 135.695 171.535 141.512 170.772 146.283C170.312 149.076 170.041 151.91 169.964 154.756L170.224 152.036L170.557 149.478L170.646 148.906L170.7 148.561L170.79 148.042L170.951 147.071L171.194 145.841L171.284 145.376L171.337 145.15C171.517 144.254 171.714 143.412 171.921 142.603V142.505L172.02 142.149L172.37 140.843L172.54 140.26L172.63 139.947L172.729 139.624L172.89 139.095L173.258 138.015L173.348 137.756V137.67V137.573L173.447 137.292L173.976 135.846L174.228 135.231L174.335 134.95L174.443 134.691C174.703 134.054 174.955 133.504 175.161 133.061L175.242 133.018Z" fill="#E3D85C"/>
<path d="M183.436 186.165V185.506C182.33 187.277 181.314 189.126 180.394 191.043L180.797 191.389L181.812 192.09L182.808 192.598L183.508 190.32L183.454 186.165H183.436Z" fill="#E3D85C"/>
<path d="M183.392 184.837L183.168 177.109L182.674 176.386L182.36 175.965L181.22 174.4L180.681 173.709L180.403 173.331L180.089 172.954L179.604 172.328L178.509 170.989L178.258 170.676L178.078 170.46L177.782 170.147L176.301 168.464L175.619 167.751L175.332 167.438L175.036 167.136C174.335 166.402 173.698 165.787 173.169 165.29L171.23 163.585C175.792 166.75 179.82 170.917 183.105 175.868L182.782 169.467V169.565V169.403L182.602 165.927C180.804 164.916 178.932 164.107 177.01 163.509V166.208L176.813 164.815L176.696 163.412C174.657 162.707 172.526 162.465 170.413 162.7C170.413 162.7 170.853 165.571 171.715 169.5L173.24 169.77L174.748 170.223C173.797 170.122 172.84 170.151 171.894 170.309L172.854 174.324L173.169 175.404C174.829 175.133 176.516 175.199 178.159 175.598L179.802 176.062H178.267L176.723 176.256C175.688 176.443 174.672 176.754 173.689 177.185L174.201 178.966C174.452 179.743 174.712 180.52 174.973 181.297L175.682 183.175C176.122 182.83 176.579 182.506 177.019 182.204L178.41 181.383L177.145 182.463L175.897 183.682C176.741 185.942 177.904 188.009 179.335 189.791L180.681 187.957C181.553 186.814 182.479 185.732 183.455 184.718L183.392 184.837Z" fill="#E3D85C"/>
<path d="M9.72112 387.376L7.11816 407.57C10.1789 412.395 14.7744 413.485 20.5817 411.693L25.0068 400.252L9.74804 387.376H9.72112Z" fill="#363440"/>
<path d="M52.2026 387.376L49.5996 407.57C52.6603 412.395 57.2559 413.485 63.0632 411.693L67.4882 400.252L52.2295 387.376H52.2026Z" fill="#363440"/>
<path d="M91.8928 286.479L102.251 300.964L96.7577 307.235L92.2699 299.744L71.509 382.421C70.914 384.788 69.7037 386.863 68.0559 388.341C66.4081 389.819 64.4096 390.623 62.3538 390.635L13.1938 390.937L19.2704 399.162L13.7952 402.724L3.10511 387.937C2.6623 387.449 2.25677 386.914 1.89339 386.339C0.995354 384.89 0.39206 383.207 0.131773 381.427C-0.128514 379.646 -0.0385494 377.817 0.394459 376.086L22.0259 289.922C22.6222 287.556 23.8328 285.483 25.4803 284.005C27.1278 282.527 29.1257 281.722 31.1811 281.708L83.8506 281.395C85.3551 281.385 86.8406 281.8 88.1875 282.606C89.5344 283.412 90.7052 284.587 91.6056 286.036L91.8928 286.479Z" fill="#F19E44"/>
<path d="M92.1893 286.921L96.8567 293.397L37.8504 293.603C36.176 293.609 34.5454 294.247 33.1881 295.426C31.8308 296.605 30.8151 298.266 30.2839 300.176L20.0067 337.046C19.8929 337.453 19.7137 337.829 19.4791 338.152C19.2446 338.476 18.9593 338.74 18.6397 338.931C18.3201 339.122 17.9723 339.236 17.6162 339.265C17.2601 339.294 16.9028 339.239 16.5645 339.102C16.2262 338.965 15.9136 338.75 15.6446 338.468C15.3756 338.186 15.1554 337.843 14.9967 337.458C14.8379 337.074 14.7436 336.656 14.7192 336.228C14.6949 335.799 14.7409 335.37 14.8546 334.963L25.1318 298.136C26.0291 294.934 27.737 292.15 30.0161 290.173C32.2953 288.197 35.0316 287.128 37.8414 287.116L92.1893 286.921Z" fill="#FFCE80"/>
<path d="M33.6589 304.558C34.164 302.546 35.1925 300.782 36.5932 299.525C37.994 298.268 39.6931 297.584 41.4408 297.574L97.0903 297.24C98.3684 297.232 99.6303 297.584 100.774 298.27C101.919 298.955 102.913 299.953 103.678 301.185C104.443 302.416 104.957 303.846 105.178 305.36C105.399 306.874 105.322 308.429 104.953 309.901L82.4509 399.486C81.9474 401.5 80.9195 403.266 79.5186 404.526C78.1178 405.785 76.4178 406.47 74.6689 406.48L19.0195 406.815C17.741 406.821 16.479 406.467 15.3349 405.78C14.1908 405.094 13.1966 404.094 12.4319 402.862C11.6673 401.63 11.1536 400.199 10.9322 398.685C10.7107 397.171 10.7876 395.615 11.1568 394.143L33.6589 304.558Z" fill="#FDC458"/>
<path d="M27.008 366.458C27.3652 364.907 28.1352 363.539 29.2003 362.565C30.2653 361.59 31.5667 361.062 32.905 361.061H77.4784C78.4185 361.063 79.3456 361.325 80.1878 361.827C81.0301 362.33 81.7649 363.058 82.3351 363.957C82.9054 364.856 83.2958 365.9 83.4763 367.01C83.6567 368.119 83.6222 369.264 83.3755 370.354C82.056 376.161 80.4045 383.425 79.3005 388.304C78.9447 389.856 78.175 391.224 77.1096 392.199C76.0443 393.174 74.7422 393.702 73.4035 393.701H28.8031C27.8622 393.705 26.9333 393.447 26.0891 392.948C25.2448 392.448 24.5083 391.72 23.9371 390.821C23.3659 389.922 22.9756 388.876 22.7967 387.765C22.6178 386.654 22.6553 385.509 22.9061 384.418C24.2255 378.611 25.8771 371.347 26.9811 366.469L27.008 366.458Z" fill="#F19E44"/>
<path d="M40.4717 307.299C40.6807 306.482 41.1019 305.766 41.6737 305.257C42.2455 304.748 42.9377 304.473 43.6491 304.471H92.2795C92.8024 304.473 93.3178 304.623 93.7839 304.908C94.2501 305.193 94.654 305.606 94.9631 306.113C95.2723 306.62 95.478 307.208 95.5638 307.828C95.6495 308.448 95.6129 309.084 95.4569 309.685C94.667 312.696 93.7066 316.366 93.0604 318.848C92.8467 319.66 92.4234 320.368 91.852 320.871C91.2807 321.374 90.5909 321.644 89.883 321.644L41.2795 321.73C40.7571 321.731 40.2419 321.585 39.7754 321.302C39.3089 321.02 38.9042 320.609 38.5941 320.104C38.2839 319.598 38.0769 319.012 37.9899 318.393C37.9029 317.774 37.9382 317.138 38.0931 316.538C38.874 313.506 39.8254 309.793 40.4717 307.299Z" fill="#F19E44"/>
<path d="M47.3643 311.973L63.1796 253.872C63.3906 253.167 63.7827 252.561 64.299 252.142C64.8154 251.723 65.4293 251.512 66.0518 251.541L98.7323 252.048C99.1809 252.048 99.6239 252.168 100.029 252.4C100.434 252.631 100.792 252.968 101.075 253.386C101.341 253.783 101.52 254.254 101.595 254.756C101.67 255.257 101.64 255.774 101.506 256.257L85.9061 313.646C85.6328 314.498 85.1015 315.194 84.4188 315.595C83.7361 315.995 82.9528 316.07 82.226 315.805C81.8679 315.706 81.5302 315.521 81.2339 315.259C80.9375 314.998 80.6888 314.667 80.503 314.285C80.3172 313.904 80.1982 313.481 80.1534 313.043C80.1086 312.604 80.1389 312.159 80.2424 311.735L94.7112 258.491L68.188 258.081L53.037 313.862C52.7638 314.714 52.2324 315.41 51.5497 315.811C50.8671 316.211 50.0837 316.286 49.357 316.02C48.9978 315.922 48.6591 315.736 48.3621 315.474C48.065 315.212 47.8158 314.88 47.6299 314.497C47.4439 314.115 47.3252 313.691 47.2811 313.251C47.237 312.811 47.2684 312.365 47.3733 311.94L47.3643 311.973Z" fill="#C7E3F4"/>
<path d="M84.803 236.495C84.803 236.495 70.1008 237.272 68.4672 245.41C67.9704 247.443 67.6339 249.528 67.4619 251.638L77.3352 251.789C77.3352 251.789 72.7666 266.802 75.5401 267.515C78.3135 268.227 85.0094 255.933 85.0094 255.933C85.0094 255.933 91.6335 255.07 93.5274 251.335C95.6726 247.083 95.7085 238.761 95.7085 238.761L84.7312 236.495H84.803Z" fill="#FDA092"/>
<path d="M97.1445 152.122L81.8857 237.693L95.5647 240.855L116.936 163.434L97.1445 152.122Z" fill="#FDA092"/>
<path d="M94.7295 165.668C99.9175 170.104 106.721 171.626 114.952 170.59L116.935 163.391L97.144 152.122L94.7295 165.668Z" fill="#EF7D78"/>
<path d="M121.702 124.34C121.172 110.546 115.23 94.356 115.23 94.356C101.91 102.106 97.6829 117.789 91.8936 152.068C99.786 159.87 108.873 165.737 118.641 169.338C118.641 169.338 122.707 150.849 121.711 124.373L121.702 124.34Z" fill="#D4C548"/>
</g>
<defs>
<clipPath id="clip0_6_1358">
<rect width="221" height="436" fill="white"/>
</clipPath>
</defs>
</svg>
