<svg width="26" height="33" viewBox="0 0 26 33" fill="none" xmlns="http://www.w3.org/2000/svg">
<path d="M10.909 3.87778L3.40155 11.509C2.55655 12.3615 2.01488 14.1628 2.19905 15.5103L3.63988 26.4553C3.89988 28.4078 5.37321 29.989 6.93321 29.989H19.0665C20.6157 29.989 22.0999 28.394 22.3599 26.4553L23.8007 15.5103C23.974 14.1628 23.4324 12.3615 22.5982 11.509L15.0907 3.89153C13.9315 2.70903 12.0574 2.70903 10.909 3.87778V3.87778Z" stroke="#2F80ED" stroke-width="1.5" stroke-linecap="round" stroke-linejoin="round"/>
<path d="M10.7031 19.773C12.079 18.1092 13.9206 18.1092 15.2965 19.773" stroke="#2F80ED" stroke-width="1.5" stroke-linecap="round" stroke-linejoin="round"/>
<path d="M17.593 16.8581C17.0348 16.1619 16.3907 15.586 15.6863 15.1531C14.8471 14.6373 13.9267 14.3694 12.9943 14.3694C12.0618 14.3694 11.1414 14.6373 10.3022 15.1531C9.63051 15.5656 8.99134 16.1294 8.39551 16.8581" stroke="#2F80ED" stroke-width="1.5" stroke-linecap="round" stroke-linejoin="round"/>
<path d="M12.9941 23.3753H13.0047" stroke="#2F80ED" stroke-width="2" stroke-linecap="round" stroke-linejoin="round"/>
</svg>
