<svg width="22" height="22" viewBox="0 0 22 22" fill="none" xmlns="http://www.w3.org/2000/svg">
<path d="M6.85645 16.8208L9.69811 19.0208C10.0648 19.3875 10.8898 19.5708 11.4398 19.5708H14.9231C16.0231 19.5708 17.2148 18.7458 17.4898 17.6458L19.6898 10.9542C20.1481 9.67083 19.3231 8.57083 17.9481 8.57083H14.2814C13.7314 8.57083 13.2731 8.11249 13.3648 7.47082L13.8231 4.53749C14.0064 3.71249 13.4564 2.79582 12.6314 2.52082C11.8981 2.24582 10.9814 2.61249 10.6148 3.16249L6.85645 8.75416" stroke="#2F80ED" stroke-width="1.5" stroke-miterlimit="10"/>
<path d="M2.18164 16.8208V7.83749C2.18164 6.55416 2.73164 6.09583 4.01497 6.09583H4.93164C6.21497 6.09583 6.76497 6.55416 6.76497 7.83749V16.8208C6.76497 18.1042 6.21497 18.5625 4.93164 18.5625H4.01497C2.73164 18.5625 2.18164 18.1042 2.18164 16.8208Z" stroke="#2F80ED" stroke-width="1.5" stroke-linecap="round" stroke-linejoin="round"/>
</svg>
