<svg width="24" height="31" viewBox="0 0 24 31" fill="none" xmlns="http://www.w3.org/2000/svg">
<path d="M11.9999 17.3472C12.4096 17.3472 12.8153 17.243 13.1939 17.0405C13.5724 16.8379 13.9163 16.5411 14.2061 16.1669C14.4958 15.7927 14.7256 15.3484 14.8824 14.8594C15.0392 14.3705 15.1199 13.8465 15.1199 13.3172C15.1199 12.788 15.0392 12.264 14.8824 11.775C14.7256 11.2861 14.4958 10.8418 14.2061 10.4676C13.9163 10.0934 13.5724 9.79652 13.1939 9.594C12.8153 9.39147 12.4096 9.28723 11.9999 9.28723C11.1724 9.28723 10.3788 9.71182 9.79371 10.4676C9.2086 11.2234 8.87988 12.2484 8.87988 13.3172C8.87988 14.3861 9.2086 15.4111 9.79371 16.1669C10.3788 16.9226 11.1724 17.3472 11.9999 17.3472V17.3472Z" stroke="#2F80ED" stroke-width="1.5"/>
<path d="M3.61971 10.966C5.58971 -0.219784 18.4197 -0.206867 20.3797 10.979C21.5297 17.5406 18.3697 23.0948 15.5997 26.5306C14.6318 27.7364 13.3395 28.4103 11.9947 28.4103C10.65 28.4103 9.35763 27.7364 8.38971 26.5306C5.62971 23.0948 2.46971 17.5277 3.61971 10.966V10.966Z" stroke="#2F80ED" stroke-width="1.5"/>
</svg>
