<svg width="26" height="33" viewBox="0 0 26 33" fill="none" xmlns="http://www.w3.org/2000/svg">
<path d="M2.16699 20.625H20.042C22.1328 20.625 23.8337 22.7838 23.8337 25.4375C23.8337 28.0913 22.1328 30.25 20.042 30.25C17.9512 30.25 16.2503 28.0913 16.2503 25.4375V24.75" stroke="#2F80ED" stroke-width="1.5" stroke-miterlimit="10" stroke-linecap="round" stroke-linejoin="round"/>
<path d="M2.16699 16.5002H20.042C22.122 16.5002 23.8337 14.3415 23.8337 11.6877C23.8337 9.04774 22.122 6.87524 20.042 6.87524C19.0373 6.87887 18.0745 7.38707 17.364 8.2888C16.6536 9.19053 16.2532 10.4125 16.2503 11.6877V12.3752" stroke="#2F80ED" stroke-width="1.5" stroke-miterlimit="10" stroke-linecap="round" stroke-linejoin="round"/>
<path d="M2.16699 12.375H10.0862C10.6625 12.375 11.226 12.1581 11.7052 11.7517C12.1844 11.3453 12.5579 10.7676 12.7785 10.0917C12.9991 9.41588 13.0568 8.67219 12.9443 7.9547C12.8319 7.23721 12.5543 6.57816 12.1468 6.06088C11.7392 5.5436 11.22 5.19133 10.6547 5.04861C10.0894 4.90589 9.50345 4.97914 8.97095 5.25909C8.43846 5.53904 7.98333 6.01312 7.66312 6.62138C7.3429 7.22963 7.17199 7.94475 7.17199 8.67629V9.19879" stroke="#2F80ED" stroke-width="1.5" stroke-miterlimit="10" stroke-linecap="round" stroke-linejoin="round"/>
</svg>
