<svg width="32" height="32" viewBox="0 0 32 32" fill="none" xmlns="http://www.w3.org/2000/svg">
<path d="M16 10.3335C13.48 10.3335 13 11.3868 13 13.3335V14.1602H19V13.3335C19 11.3868 18.52 10.3335 16 10.3335Z" fill="#219653"/>
<path d="M15.9974 20.1308C16.3864 20.1308 16.7595 19.9763 17.0345 19.7013C17.3096 19.4262 17.4641 19.0532 17.4641 18.6642C17.4641 18.2752 17.3096 17.9021 17.0345 17.6271C16.7595 17.352 16.3864 17.1975 15.9974 17.1975C15.6084 17.1975 15.2354 17.352 14.9603 17.6271C14.6853 17.9021 14.5308 18.2752 14.5308 18.6642C14.5308 19.0532 14.6853 19.4262 14.9603 19.7013C15.2354 19.9763 15.6084 20.1308 15.9974 20.1308V20.1308Z" fill="#219653"/>
<path d="M16.0001 2.66675C8.64008 2.66675 2.66675 8.64008 2.66675 16.0001C2.66675 23.3601 8.64008 29.3334 16.0001 29.3334C23.3601 29.3334 29.3334 23.3601 29.3334 16.0001C29.3334 8.64008 23.3601 2.66675 16.0001 2.66675ZM23.1734 19.3334C23.1734 22.2667 22.2667 23.1734 19.3334 23.1734H12.6667C9.73341 23.1734 8.82675 22.2667 8.82675 19.3334V18.0001C8.82675 15.7201 9.37341 14.6667 11.0001 14.3067V13.3334C11.0001 12.0934 11.0001 8.33341 16.0001 8.33341C21.0001 8.33341 21.0001 12.0934 21.0001 13.3334V14.3067C22.6267 14.6667 23.1734 15.7201 23.1734 18.0001V19.3334Z" fill="#219653"/>
</svg>
