<svg width="37" height="37" viewBox="0 0 37 37" fill="none" xmlns="http://www.w3.org/2000/svg">
<path d="M28.5211 6.3362L20.8282 3.45329C19.5486 2.97537 17.4519 2.97537 16.1723 3.45329L8.47941 6.3362C6.70649 6.99912 5.25732 9.09579 5.25732 10.9766V22.4312C5.25732 24.2504 6.45982 26.64 7.92441 27.7345L14.5536 32.6833C16.7273 34.3175 20.304 34.3175 22.4777 32.6833L29.1069 27.7345C30.5715 26.64 31.774 24.2504 31.774 22.4312V10.9766C31.7432 9.09579 30.294 6.99912 28.5211 6.3362V6.3362ZM18.3923 10.8379C20.2115 10.8379 21.6915 12.3179 21.6915 14.137C21.6915 15.9254 20.2886 17.3591 18.5157 17.4208H18.3615C16.5115 17.3591 15.124 15.9254 15.124 14.137C15.1086 12.3179 16.5886 10.8379 18.3923 10.8379V10.8379ZM21.8765 25.2216C20.9361 25.8383 19.7182 26.162 18.5002 26.162C17.2823 26.162 16.049 25.8537 15.124 25.2216C14.2452 24.6358 13.7673 23.8341 13.7519 22.9554C13.7519 22.092 14.2452 21.2595 15.124 20.6737C16.9894 19.4404 20.0265 19.4404 21.8919 20.6737C22.7707 21.2595 23.264 22.0612 23.264 22.94C23.2486 23.8033 22.7552 24.6358 21.8765 25.2216Z" fill="white"/>
</svg>
