<svg width="32" height="32" viewBox="0 0 32 32" fill="none" xmlns="http://www.w3.org/2000/svg">
<path d="M12.2627 2.66675L11.4163 6.46623C10.935 6.69787 10.4748 6.96466 10.0335 7.26571L6.31999 6.09644L2.58301 12.5704L5.39811 15.1485C5.28813 15.9649 5.33794 16.3673 5.39811 16.8516L2.58301 19.4298L6.31999 25.9037L10.0335 24.7345C10.4748 25.0355 10.935 25.3023 11.4163 25.5339L12.2627 29.3334H19.7367L20.583 25.5339C21.0644 25.3023 21.5245 25.0355 21.9658 24.7345L25.6794 25.9037L29.4163 19.4298L26.6012 16.8516C26.6242 16.5682 26.6661 16.2846 26.6663 16.0001C26.6674 15.7069 26.6212 15.4109 26.6012 15.1485L29.4163 12.5704L25.6794 6.09644L21.9658 7.26571C21.5245 6.96466 21.0644 6.69787 20.583 6.46623L19.7367 2.66675H12.2627ZM14.4033 5.33341H17.596L18.2549 8.29175L18.9163 8.55217C19.6646 8.84519 20.364 9.24854 20.9919 9.75008L21.5492 10.1928L24.4398 9.28394L26.0361 12.0496L23.8018 14.099L23.9085 14.8022C24.0342 15.5798 24.0098 16.4746 23.9085 17.198L23.8018 17.9011L26.0361 19.9506L24.4398 22.7162L21.5492 21.8074L20.9919 22.2501C20.364 22.7516 19.6646 23.155 18.9163 23.448L18.2549 23.7084L17.596 26.6667H14.4033L13.7445 23.7084L13.083 23.448C12.3348 23.155 11.6353 22.7516 11.0075 22.2501L10.4502 21.8074L7.55957 22.7162L5.96322 19.9506L8.19759 17.9011L8.09082 17.198C7.96059 16.4047 7.98058 15.4968 8.09082 14.8022L8.19759 14.099L5.96322 12.0496L7.55957 9.28394L10.4502 10.1928L11.0075 9.75008C11.6353 9.24854 12.3348 8.84519 13.083 8.55217L13.7445 8.29175L14.4033 5.33341ZM15.9997 10.6667C13.0699 10.6667 10.6663 13.0704 10.6663 16.0001C10.6663 18.9298 13.0699 21.3334 15.9997 21.3334C18.9294 21.3334 21.333 18.9298 21.333 16.0001C21.333 13.0704 18.9294 10.6667 15.9997 10.6667ZM15.9997 13.3334C17.4882 13.3334 18.6663 14.5115 18.6663 16.0001C18.6663 17.4886 17.4882 18.6667 15.9997 18.6667C14.5111 18.6667 13.333 17.4886 13.333 16.0001C13.333 14.5115 14.5111 13.3334 15.9997 13.3334Z" fill="#A098AE"/>
</svg>
