<svg width="33" height="22" viewBox="0 0 33 22" fill="none" xmlns="http://www.w3.org/2000/svg">
<path d="M13.2687 0.824464C13.7697 0.824464 14.1992 1.00341 14.5571 1.36129C14.8434 1.71918 14.9865 2.14864 14.9865 2.64969C14.9865 3.22231 14.8792 3.79492 14.6644 4.36754L8.97404 19.0767C8.61615 19.7925 8.25827 20.3651 7.90038 20.7945C7.47092 21.2956 6.79093 21.5461 5.86043 21.5461L2.31735 21.5461C1.74473 21.5461 1.31527 21.3314 1.02896 20.9019C0.671071 20.4724 0.563705 19.8998 0.70686 19.184L3.06891 3.93807C3.14049 3.07915 3.4268 2.32759 3.92784 1.68339C4.42888 1.11077 5.18044 0.824463 6.18253 0.824463L13.2687 0.824464ZM30.4472 0.824465C30.9483 0.824465 31.3777 1.00341 31.7356 1.36129C32.0219 1.71918 32.1651 2.14865 32.1651 2.64969C32.1651 3.22231 32.0577 3.79493 31.843 4.36754L26.1526 19.0767C25.7947 19.7925 25.401 20.3651 24.9716 20.7945C24.5421 21.2956 23.8979 21.5461 23.039 21.5461H19.4959C18.9233 21.5461 18.4938 21.3314 18.2075 20.9019C17.8496 20.4724 17.7423 19.8998 17.8854 19.184L20.2475 3.93808C20.319 3.07915 20.6054 2.32759 21.1064 1.68339C21.6074 1.11077 22.3232 0.824464 23.2537 0.824464L30.4472 0.824465Z" fill="#9747FF"/>
</svg>
