<svg width="22" height="20" viewBox="0 0 22 20" fill="none" xmlns="http://www.w3.org/2000/svg">
<path fill-rule="evenodd" clip-rule="evenodd" d="M2.34158 4.47885C2.0711 4.39096 1.78644 4.56698 1.74422 4.84824L1.23758 8.22303C1.16501 8.70646 1.45257 9.17149 1.91748 9.32255L19.1768 14.9304C19.9832 15.1925 20.8494 14.7511 21.1115 13.9446C21.3839 13.1063 20.8961 12.2113 20.0439 11.9859L14.7323 10.5805L13.4042 1.20729C13.3491 0.818385 13.0773 0.49483 12.7037 0.373452C12.0777 0.170059 11.4245 0.598869 11.3621 1.2541L10.602 9.23844L3.34577 7.29588L2.64245 4.7921C2.60084 4.64395 2.48794 4.5264 2.34158 4.47885ZM21.1776 17.9521H0.647644V19.5314H21.1776V17.9521Z" fill="#6E7491"/>
</svg>
