<svg width="22" height="19" viewBox="0 0 22 19" fill="none" xmlns="http://www.w3.org/2000/svg">
<path fill-rule="evenodd" clip-rule="evenodd" d="M0.292852 9.81546C0.0279673 9.919 -0.0805463 10.2356 0.0651342 10.4799L1.81319 13.4108C2.06359 13.8306 2.58081 14.0079 3.0361 13.8299L19.9381 7.22298C20.7279 6.91426 21.1179 6.02374 20.8092 5.23396C20.4883 4.41301 19.5436 4.03019 18.7417 4.39614L13.7432 6.67727L6.77303 0.271251C6.48383 0.00545878 6.06849 -0.0723994 5.70266 0.0706026C5.08963 0.310231 4.85636 1.05604 5.22358 1.60227L9.69834 8.25839L2.85554 11.3571L0.724133 9.86692C0.598016 9.77875 0.436176 9.75943 0.292852 9.81546ZM21.6776 16.9521H1.14764V18.5313H21.6776V16.9521Z" fill="#6E7491"/>
</svg>
