<svg width="40" height="40" viewBox="0 0 40 40" fill="none" xmlns="http://www.w3.org/2000/svg">
<path d="M33.3335 13.3333L23.3335 4.56668C22.4168 3.74675 21.23 3.29346 20.0002 3.29346C18.7703 3.29346 17.5835 3.74675 16.6668 4.56668L6.66682 13.3333C6.13744 13.8068 5.71499 14.3876 5.42761 15.0371C5.14023 15.6866 4.99451 16.3898 5.00016 17.1V31.6667C5.00016 32.9928 5.52694 34.2645 6.46462 35.2022C7.40231 36.1399 8.67408 36.6667 10.0002 36.6667H30.0002C31.3262 36.6667 32.598 36.1399 33.5357 35.2022C34.4734 34.2645 35.0002 32.9928 35.0002 31.6667V17.0833C35.0034 16.3759 34.8566 15.6759 34.5693 15.0295C34.282 14.383 33.8608 13.8049 33.3335 13.3333ZM23.3335 33.3333H16.6668V25C16.6668 24.558 16.8424 24.1341 17.155 23.8215C17.4675 23.5089 17.8915 23.3333 18.3335 23.3333H21.6668C22.1089 23.3333 22.5328 23.5089 22.8453 23.8215C23.1579 24.1341 23.3335 24.558 23.3335 25V33.3333ZM31.6668 31.6667C31.6668 32.1087 31.4912 32.5326 31.1787 32.8452C30.8661 33.1577 30.4422 33.3333 30.0002 33.3333H26.6668V25C26.6668 23.6739 26.14 22.4022 25.2024 21.4645C24.2647 20.5268 22.9929 20 21.6668 20H18.3335C17.0074 20 15.7356 20.5268 14.798 21.4645C13.8603 22.4022 13.3335 23.6739 13.3335 25V33.3333H10.0002C9.55813 33.3333 9.13421 33.1577 8.82165 32.8452C8.50909 32.5326 8.33349 32.1087 8.33349 31.6667V17.0833C8.33379 16.8467 8.38448 16.6128 8.48219 16.3973C8.57989 16.1818 8.72238 15.9895 8.90016 15.8333L18.9002 7.08334C19.2043 6.81614 19.5953 6.66879 20.0002 6.66879C20.405 6.66879 20.796 6.81614 21.1002 7.08334L31.1002 15.8333C31.2779 15.9895 31.4204 16.1818 31.5181 16.3973C31.6158 16.6128 31.6665 16.8467 31.6668 17.0833V31.6667Z" fill="#4D44B5"/>
</svg>
