<svg width="20" height="20" viewBox="0 0 20 20" fill="none" xmlns="http://www.w3.org/2000/svg">
<path d="M2.84435 11.4817L1.66602 12.66L5.79018 14.4275L7.55852 18.5525L8.73685 17.3742L8.14768 14.4275L10.9085 11.6667L13.9168 18.0867L15.0327 16.9708L14.041 8.53499L16.3977 6.17749C16.5569 6.02375 16.6838 5.83984 16.7712 5.6365C16.8585 5.43316 16.9045 5.21446 16.9064 4.99316C16.9084 4.77186 16.8662 4.5524 16.7824 4.34757C16.6986 4.14274 16.5748 3.95666 16.4183 3.80017C16.2619 3.64368 16.0758 3.51992 15.8709 3.43612C15.6661 3.35232 15.4466 3.31015 15.2253 3.31207C15.004 3.314 14.7853 3.35998 14.582 3.44732C14.3787 3.53467 14.1948 3.66164 14.041 3.82083L11.6218 6.23999L3.18602 5.24749L2.13185 6.30249L8.50185 9.36082L5.79102 12.0717L2.84435 11.4817Z" fill="#4F4F4F"/>
</svg>
