<svg width="83" height="16" viewBox="0 0 83 16" fill="none" xmlns="http://www.w3.org/2000/svg">
<path d="M14.0661 0.496094L1.59605 0.496094C0.914671 0.496094 0.319336 0.98637 0.319336 1.65975L0.319336 14.1575C0.319336 14.8345 0.914671 15.4378 1.59605 15.4378L14.0624 15.4378C14.7475 15.4378 15.2611 14.8305 15.2611 14.1575L15.2611 1.65975C15.2651 0.98637 14.7475 0.496094 14.0661 0.496094ZM4.95094 12.9508L2.8104 12.9508L2.8104 6.29536L4.95094 6.29536L4.95094 12.9508ZM3.95472 5.28346H3.93937C3.25432 5.28346 2.81074 4.7735 2.81074 4.13514C2.81074 3.48511 3.26599 2.98716 3.96639 2.98716C4.66678 2.98716 5.09536 3.48144 5.1107 4.13514C5.11037 4.7735 4.66678 5.28346 3.95472 5.28346ZM12.774 12.9508L10.6335 12.9508L10.6335 9.31172C10.6335 8.4399 10.322 7.84423 9.54753 7.84423C8.95586 7.84423 8.60567 8.24446 8.44991 8.63434C8.39155 8.77442 8.37587 8.96519 8.37587 9.15997L8.37587 12.9508L6.23533 12.9508L6.23533 6.29536L8.37587 6.29536V7.22155C8.68738 6.77796 9.17399 6.1396 10.3063 6.1396C11.7114 6.1396 12.7743 7.06579 12.7743 9.06258L12.774 12.9508Z" fill="white"/>
<path d="M48.5597 5.04344C48.0064 5.28368 47.421 5.44196 46.822 5.51326C47.4515 5.14489 47.925 4.55966 48.1535 3.86734C47.5583 4.21513 46.9082 4.45916 46.2311 4.58897C45.9459 4.29035 45.603 4.05278 45.2231 3.89072C44.8432 3.72866 44.4343 3.64548 44.0213 3.64625C42.349 3.64625 40.9957 4.97895 40.9957 6.62181C40.9945 6.85032 41.0207 7.07816 41.0737 7.30044C39.8746 7.24427 38.7003 6.93858 37.6262 6.40294C36.552 5.8673 35.6016 5.1135 34.8356 4.18977C34.5669 4.64244 34.4248 5.15891 34.4242 5.68523C34.4242 6.717 34.9628 7.62902 35.7763 8.16333C35.2943 8.1519 34.8223 8.02444 34.4002 7.79177V7.82861C34.4002 9.27187 35.445 10.4725 36.8278 10.7458C36.5678 10.8151 36.2998 10.8502 36.0307 10.8502C35.8397 10.8506 35.6492 10.8321 35.4619 10.795C35.8463 11.9772 36.9652 12.837 38.2905 12.8616C37.2136 13.691 35.8914 14.1392 34.5317 14.1359C34.2904 14.1356 34.0492 14.1212 33.8096 14.093C35.1928 14.9756 36.8006 15.4424 38.4417 15.4379C44.0148 15.4379 47.0595 10.9024 47.0595 6.9688C47.0595 6.83983 47.0561 6.71086 47.05 6.58496C47.641 6.1649 48.1522 5.64288 48.5597 5.04344V5.04344Z" fill="white"/>
<path fill-rule="evenodd" clip-rule="evenodd" d="M82.9084 8.1269C82.9084 4.04046 79.3709 0.727051 75.0082 0.727051C70.6454 0.727051 67.1079 4.04046 67.1079 8.1269C67.1079 11.8202 69.9964 14.8816 73.7738 15.4372V10.2666L71.7673 10.2666V8.1269L73.7738 8.1269V6.49662C73.7738 4.64236 74.9535 3.61728 76.7579 3.61728C77.6223 3.61728 78.5266 3.76198 78.5266 3.76198V5.5832L77.5299 5.5832C76.5491 5.5832 76.2422 6.15338 76.2422 6.73942V8.1269L78.4331 8.1269L78.0833 10.2666L76.2426 10.2666V15.4379C80.0199 14.8826 82.9084 11.8212 82.9084 8.1269V8.1269Z" fill="white"/>
</svg>
