<svg width="14" height="13" viewBox="0 0 14 13" fill="none" xmlns="http://www.w3.org/2000/svg">
<path d="M1.93771 0.730287C1.84524 0.7331 1.75431 0.753267 1.67031 0.789594C1.5863 0.82592 1.51093 0.877668 1.44866 0.941773C1.38639 1.00588 1.33848 1.08104 1.30777 1.1628C1.27706 1.24456 1.26417 1.33127 1.26987 1.41778C1.36226 2.90159 1.79781 6.52206 3.88316 8.77992C6.38031 11.5002 9.63241 12.4375 12.969 12.299C13.1478 12.289 13.316 12.2158 13.4394 12.0941C13.5629 11.9725 13.6325 11.8115 13.6342 11.6437V9.2671C13.6321 9.04536 13.5506 8.83071 13.4026 8.6576C13.2547 8.48449 13.049 8.36296 12.8185 8.31252L11.1476 7.9663C10.9409 7.92502 10.7258 7.94279 10.53 8.0173C10.3343 8.09181 10.1669 8.21963 10.0495 8.38424L9.67992 8.90851C9.64599 8.95649 9.59527 8.99187 9.53648 9.00858C9.4777 9.02528 9.41454 9.02225 9.35788 9.00001C8.5079 8.65627 5.12118 7.17246 4.74898 4.66978C4.74169 4.62145 4.74983 4.57217 4.77238 4.52817C4.79493 4.48416 4.83087 4.44739 4.87569 4.42248L5.54617 4.03917C5.73007 3.93239 5.87452 3.77527 5.95998 3.58905C6.04543 3.40284 6.06776 3.19653 6.02395 2.99803L5.65703 1.40542C5.60339 1.18227 5.46887 0.983438 5.27635 0.842759C5.08384 0.70208 4.84524 0.628252 4.60116 0.63384L1.93771 0.730287Z" stroke="#F6B426" stroke-width="0.686979"/>
</svg>
