<svg width="37" height="37" viewBox="0 0 37 37" fill="none" xmlns="http://www.w3.org/2000/svg">
<path d="M29.2917 23.125C25.8846 23.125 23.125 25.8846 23.125 29.2917C23.125 30.4479 23.4487 31.5425 24.0192 32.4675C24.5627 33.3809 25.3346 34.1371 26.2591 34.6615C27.1836 35.1859 28.2288 35.4605 29.2917 35.4583C31.5425 35.4583 33.5004 34.2558 34.5642 32.4675C35.1346 31.5425 35.4583 30.4479 35.4583 29.2917C35.4583 25.8846 32.6987 23.125 29.2917 23.125ZM32.4829 28.6287L29.1992 31.6658C28.9833 31.8663 28.6904 31.9742 28.4129 31.9742C28.12 31.9742 27.8271 31.8663 27.5958 31.635L26.0696 30.1088C25.8546 29.8912 25.734 29.5976 25.734 29.2917C25.734 28.9858 25.8546 28.6922 26.0696 28.4746C26.5167 28.0275 27.2567 28.0275 27.7037 28.4746L28.4438 29.2146L30.9104 26.9329C31.3729 26.5012 32.1129 26.5321 32.5446 26.9946C32.9762 27.4571 32.9454 28.1817 32.4829 28.6287Z" fill="white"/>
<path d="M33.9168 11.6364V12.3302C33.9168 13.1781 33.2231 13.8719 32.3752 13.8719H4.62516C3.77725 13.8719 3.0835 13.1781 3.0835 12.3302V11.621C3.0835 8.09061 5.93558 5.23853 9.466 5.23853H27.5189C31.0493 5.23853 33.9168 8.10603 33.9168 11.6364V11.6364Z" fill="white"/>
<path d="M3.0835 17.726V25.3727C3.0835 28.9031 5.93558 31.7552 9.466 31.7552H19.1168C20.011 31.7552 20.7818 30.9998 20.7047 30.1056C20.4889 27.7469 21.2443 25.1877 23.341 23.1527C24.2043 22.3048 25.2681 21.6573 26.4243 21.2873C28.3514 20.6706 30.2168 20.7477 31.8664 21.3027C32.0983 21.3838 32.3462 21.4082 32.5895 21.3741C32.8328 21.3399 33.0644 21.2481 33.265 21.1064C33.4656 20.9646 33.6294 20.7769 33.7428 20.559C33.8562 20.3411 33.9159 20.0992 33.9168 19.8535V17.7106C33.9168 16.8627 33.2231 16.1689 32.3752 16.1689H4.62516C3.77725 16.1844 3.0835 16.8781 3.0835 17.726ZM12.3335 26.5906H9.25016C8.61808 26.5906 8.09391 26.0664 8.09391 25.4344C8.09391 24.8023 8.61808 24.2781 9.25016 24.2781H12.3335C12.9656 24.2781 13.4897 24.8023 13.4897 25.4344C13.4897 26.0664 12.9656 26.5906 12.3335 26.5906Z" fill="white"/>
</svg>
