<svg width="73" height="73" viewBox="0 0 73 73" fill="none" xmlns="http://www.w3.org/2000/svg">
<circle cx="36.4252" cy="36.4999" r="36.4252" fill="url(#paint0_linear_8_89)"/>
<path d="M34.2686 25.8242C34.7697 25.8242 35.1991 26.0032 35.557 26.361C35.8433 26.7189 35.9865 27.1484 35.9865 27.6494C35.9865 28.2221 35.8791 28.7947 35.6644 29.3673L29.974 44.0764C29.6161 44.7922 29.2582 45.3648 28.9003 45.7943C28.4708 46.2953 27.7909 46.5459 26.8604 46.5459L23.3173 46.5459C22.7447 46.5459 22.3152 46.3311 22.0289 45.9017C21.671 45.4722 21.5636 44.8996 21.7068 44.1838L24.0688 28.9378C24.1404 28.0789 24.4267 27.3273 24.9278 26.6831C25.4288 26.1105 26.1804 25.8242 27.1825 25.8242L34.2686 25.8242ZM51.4472 25.8242C51.9482 25.8242 52.3777 26.0032 52.7356 26.3611C53.0219 26.7189 53.165 27.1484 53.165 27.6494C53.165 28.2221 53.0577 28.7947 52.8429 29.3673L47.1525 44.0764C46.7946 44.7922 46.401 45.3648 45.9715 45.7943C45.542 46.2953 44.8978 46.5459 44.0389 46.5459H40.4958C39.9232 46.5459 39.4938 46.3311 39.2074 45.9017C38.8496 45.4722 38.7422 44.8996 38.8853 44.1838L41.2474 28.9378C41.319 28.0789 41.6053 27.3273 42.1063 26.6831C42.6074 26.1105 43.3231 25.8242 44.2536 25.8242L51.4472 25.8242Z" fill="#300942"/>
<defs>
<linearGradient id="paint0_linear_8_89" x1="-2.06535" y1="15.859" x2="89.5811" y2="22.3672" gradientUnits="userSpaceOnUse">
<stop stop-color="#FFB629"/>
<stop offset="0.507189" stop-color="#FFDA56"/>
<stop offset="1" stop-color="#FFD7A6"/>
</linearGradient>
</defs>
</svg>
