<svg width="20" height="21" viewBox="0 0 20 21" fill="none" xmlns="http://www.w3.org/2000/svg">
<path d="M10.0004 11.6916C10.3418 11.6916 10.6799 11.6243 10.9954 11.4937C11.3108 11.363 11.5974 11.1715 11.8389 10.9301C12.0803 10.6886 12.2718 10.402 12.4025 10.0866C12.5331 9.77111 12.6004 9.43301 12.6004 9.09158C12.6004 8.75014 12.5331 8.41205 12.4025 8.0966C12.2718 7.78115 12.0803 7.49453 11.8389 7.2531C11.5974 7.01167 11.3108 6.82015 10.9954 6.68949C10.6799 6.55883 10.3418 6.49158 10.0004 6.49158C9.31083 6.49158 8.64951 6.7655 8.16191 7.2531C7.67432 7.74069 7.40039 8.40201 7.40039 9.09158C7.40039 9.78114 7.67432 10.4425 8.16191 10.9301C8.64951 11.4177 9.31083 11.6916 10.0004 11.6916V11.6916Z" stroke="#828282" stroke-width="1.5"/>
<path d="M3.01675 7.57496C4.65842 0.358294 15.3501 0.366628 16.9834 7.58329C17.9417 11.8166 15.3084 15.4 13.0001 17.6166C12.1935 18.3946 11.1165 18.8293 9.99592 18.8293C8.87529 18.8293 7.79835 18.3946 6.99175 17.6166C4.69175 15.4 2.05842 11.8083 3.01675 7.57496V7.57496Z" stroke="#828282" stroke-width="1.5"/>
</svg>
