<svg width="13" height="13" viewBox="0 0 13 13" fill="none" xmlns="http://www.w3.org/2000/svg">
<path d="M6.07797 0.463524C6.22765 0.00286913 6.87935 0.00286996 7.02903 0.463525L8.1746 3.98924C8.24154 4.19525 8.43351 4.33473 8.65013 4.33473H12.3573C12.8416 4.33473 13.043 4.95454 12.6512 5.23924L9.65202 7.41825C9.47678 7.54557 9.40345 7.77125 9.47039 7.97726L10.616 11.503C10.7656 11.9636 10.2384 12.3467 9.84654 12.062L6.84739 9.88298C6.67215 9.75566 6.43485 9.75566 6.2596 9.88298L3.26046 12.062C2.8686 12.3467 2.34136 11.9636 2.49104 11.503L3.63661 7.97726C3.70355 7.77125 3.63022 7.54557 3.45497 7.41824L0.455824 5.23924C0.0639669 4.95453 0.265355 4.33473 0.749717 4.33473H4.45687C4.67348 4.33473 4.86546 4.19525 4.9324 3.98924L6.07797 0.463524Z" fill="#FFCC4A"/>
</svg>
