<svg width="42" height="42" viewBox="0 0 42 42" fill="none" xmlns="http://www.w3.org/2000/svg">
<path d="M39.4108 21.1319C39.4108 19.6406 39.2873 18.5524 39.02 17.4238H21.6434V24.1548H31.8431C31.6375 25.8275 30.5271 28.3467 28.0593 30.0394L28.0247 30.2647L33.5189 34.4359L33.8996 34.4731C37.3954 31.3091 39.4108 26.6538 39.4108 21.1319" fill="#4285F4"/>
<path d="M21.6422 38.8669C26.6392 38.8669 30.8342 37.2546 33.8983 34.4735L28.0581 30.0398C26.4953 31.1079 24.3977 31.8535 21.6422 31.8535C16.748 31.8535 12.5941 28.6896 11.1133 24.3164L10.8963 24.3345L5.18335 28.6674L5.10864 28.8709C8.15209 34.7959 14.4036 38.8669 21.6422 38.8669Z" fill="#34A853"/>
<path d="M11.1144 24.3153C10.7237 23.1868 10.4976 21.9775 10.4976 20.7281C10.4976 19.4785 10.7237 18.2694 11.0939 17.1409L11.0835 16.9005L5.29899 12.498L5.10973 12.5863C3.85537 15.0449 3.13562 17.8059 3.13562 20.7281C3.13562 23.6503 3.85537 26.4111 5.10973 28.8698L11.1144 24.3153" fill="#FBBC05"/>
<path d="M21.6423 9.60494C25.1176 9.60494 27.4618 11.0761 28.7986 12.3055L34.0218 7.30756C30.8139 4.38541 26.6393 2.5918 21.6423 2.5918C14.4036 2.5918 8.15211 6.66264 5.10864 12.5875L11.0928 17.1421C12.5941 12.769 16.748 9.60494 21.6423 9.60494" fill="#EB4335"/>
</svg>
