<svg width="17" height="17" viewBox="0 0 17 17" fill="none" xmlns="http://www.w3.org/2000/svg">
<path d="M1.49414 2.67578H15.5059C16.3297 2.67578 17 3.34605 17 4.16992V12.8287C17 13.6526 16.3297 14.3228 15.5059 14.3228H1.49414C0.670271 14.3228 0 13.6526 0 12.8287V4.16992C0 3.34605 0.670271 2.67578 1.49414 2.67578ZM1.68914 3.67188L1.88856 3.83792L7.90719 8.84964C8.25071 9.13565 8.74936 9.13565 9.09281 8.84964L15.1114 3.83792L15.3109 3.67188H1.68914ZM16.0039 4.39099L11.1001 8.47441L16.0039 11.738V4.39099ZM1.49414 13.3267H15.5059C15.7465 13.3267 15.9478 13.1552 15.9939 12.9279L10.3014 9.13943L9.73018 9.6151C9.37377 9.91187 8.93685 10.0603 8.49997 10.0603C8.06308 10.0603 7.62619 9.91187 7.26976 9.6151L6.69853 9.13943L1.00605 12.9279C1.05221 13.1552 1.25348 13.3267 1.49414 13.3267ZM0.996094 11.738L5.89993 8.47444L0.996094 4.39099V11.738Z" fill="#3A014B"/>
</svg>
