<svg width="121" height="22" viewBox="0 0 121 22" fill="none" xmlns="http://www.w3.org/2000/svg">
<path d="M20.0104 0.125L1.85845 0.125C0.866598 0.125 0 0.838669 0 1.81887L0 20.0111C0 20.9967 0.866598 21.8749 1.85845 21.8749L20.0051 21.8749C21.0023 21.8749 21.7499 20.9908 21.7499 20.0111L21.7499 1.81887C21.7557 0.838669 21.0023 0.125 20.0104 0.125ZM6.74199 18.2546L3.62612 18.2546L3.62612 8.56669L6.74199 8.56669L6.74199 18.2546ZM5.29183 7.09371H5.2695C4.27231 7.09371 3.62661 6.3514 3.62661 5.42217C3.62661 4.47596 4.2893 3.75112 5.30883 3.75112C6.32835 3.75112 6.95221 4.47062 6.97454 5.42217C6.97406 6.3514 6.32835 7.09371 5.29183 7.09371ZM18.1296 18.2546L15.0138 18.2546L15.0138 12.9575C15.0138 11.6884 14.5603 10.8213 13.433 10.8213C12.5717 10.8213 12.062 11.4039 11.8353 11.9714C11.7503 12.1753 11.7275 12.453 11.7275 12.7366L11.7275 18.2546L8.61161 18.2546L8.61161 8.56669L11.7275 8.56669L11.7275 9.91489C12.1809 9.26919 12.8893 8.33997 14.5375 8.33997C16.5829 8.33997 18.1301 9.68817 18.1301 12.5948L18.1296 18.2546Z" fill="white"/>
<path d="M70.221 6.74379C69.4156 7.0935 68.5634 7.32389 67.6914 7.42769C68.6078 6.89147 69.297 6.03958 69.6296 5.0318C68.7632 5.53807 67.8169 5.89328 66.8312 6.08224C66.4162 5.64755 65.917 5.30175 65.364 5.06584C64.8111 4.82994 64.2159 4.70886 63.6146 4.70997C61.1803 4.70997 59.2104 6.64992 59.2104 9.04134C59.2086 9.37398 59.2468 9.70562 59.324 10.0292C57.5784 9.94742 55.8692 9.50245 54.3056 8.72275C52.742 7.94304 51.3584 6.84578 50.2435 5.50115C49.8524 6.16007 49.6455 6.91188 49.6446 7.67801C49.6446 9.17991 50.4287 10.5075 51.6127 11.2852C50.9112 11.2686 50.2241 11.0831 49.6097 10.7444V10.798C49.6097 12.8989 51.1305 14.6466 53.1435 15.0445C52.7649 15.1453 52.3749 15.1964 51.9831 15.1964C51.7052 15.1969 51.4278 15.17 51.1551 15.116C51.7147 16.8369 53.3434 18.0885 55.2727 18.1243C53.705 19.3316 51.7803 19.9841 49.8011 19.9793C49.4498 19.9788 49.0988 19.9579 48.7499 19.9167C50.7634 21.2015 53.1038 21.881 55.4927 21.8745C63.6052 21.8745 68.0372 15.2724 68.0372 9.54644C68.0372 9.3587 68.0323 9.17097 68.0233 8.9877C68.8836 8.37624 69.6278 7.61637 70.221 6.74379V6.74379Z" fill="white"/>
<path fill-rule="evenodd" clip-rule="evenodd" d="M120.221 11.2325C120.221 5.2841 115.072 0.460937 108.721 0.460937C102.37 0.460937 97.221 5.2841 97.221 11.2325C97.221 16.6087 101.426 21.0649 106.924 21.8738V14.3471L104.003 14.3471V11.2325L106.924 11.2325V8.8594C106.924 6.16025 108.641 4.6681 111.268 4.6681C112.526 4.6681 113.843 4.87872 113.843 4.87872V7.52978L112.392 7.52978C110.964 7.52978 110.517 8.35977 110.517 9.21284V11.2325L113.707 11.2325L113.197 14.3471L110.518 14.3471L110.518 21.8747C116.016 21.0664 120.221 16.6101 120.221 11.2325V11.2325Z" fill="white"/>
</svg>
