<svg width="33" height="22" viewBox="0 0 33 22" fill="none" xmlns="http://www.w3.org/2000/svg">
<path d="M13.2686 0.825196C13.7697 0.825196 14.1991 1.00414 14.557 1.36203C14.8433 1.71991 14.9865 2.14938 14.9865 2.65042C14.9865 3.22304 14.8791 3.79566 14.6644 4.36827L8.97398 19.0774C8.61609 19.7932 8.25821 20.3658 7.90032 20.7953C7.47085 21.2963 6.79087 21.5468 5.86037 21.5468L2.31729 21.5468C1.74467 21.5468 1.31521 21.3321 1.0289 20.9026C0.67101 20.4732 0.563644 19.9005 0.706799 19.1848L3.06885 3.93881C3.14043 3.07988 3.42674 2.32832 3.92778 1.68412C4.42882 1.1115 5.18038 0.825195 6.18247 0.825195L13.2686 0.825196ZM30.4472 0.825197C30.9482 0.825197 31.3777 1.00414 31.7356 1.36203C32.0219 1.71991 32.165 2.14938 32.165 2.65042C32.165 3.22304 32.0577 3.79566 31.8429 4.36827L26.1525 19.0774C25.7946 19.7932 25.401 20.3658 24.9715 20.7953C24.542 21.2963 23.8978 21.5468 23.0389 21.5468H19.4958C18.9232 21.5468 18.4938 21.3321 18.2075 20.9026C17.8496 20.4732 17.7422 19.9006 17.8854 19.1848L20.2474 3.93881C20.319 3.07988 20.6053 2.32832 21.1063 1.68413C21.6074 1.11151 22.3232 0.825197 23.2537 0.825197L30.4472 0.825197Z" fill="#9747FF"/>
</svg>
