<svg width="24" height="24" viewBox="0 0 24 24" fill="none" xmlns="http://www.w3.org/2000/svg">
<g clip-path="url(#clip0_8_507)">
<path d="M77.8143 21.5439L62.6762 0.65918L7.01429 44.4153L3.92857 44.3825V44.4294H1.5V100.659H101.5V44.4294H96.919L87.8048 18.1935L77.8143 21.5439ZM86.8571 44.4294H39.1048L74.6714 32.4993L81.919 30.2173L86.8571 44.4294ZM68.4048 24.7021L31.6905 37.0164L60.7667 14.159L68.4048 24.7021ZM11.0238 82.7078V62.3714C13.0328 61.6708 14.8577 60.5379 16.3652 59.0553C17.8728 57.5726 19.0251 55.7776 19.7381 53.801H83.2619C83.9746 55.7783 85.1268 57.5741 86.6343 59.0575C88.1419 60.541 89.9668 61.6747 91.9762 62.3761V82.7125C89.9668 83.4138 88.1419 84.5476 86.6343 86.031C85.1268 87.5145 83.9746 89.3103 83.2619 91.2876H19.7476C19.0342 89.3086 17.8808 87.5114 16.3715 86.0271C14.8623 84.5428 13.0352 83.4088 11.0238 82.7078Z" fill="#9747FF"/>
</g>
<defs>
<clipPath id="clip0_8_507">
<rect width="24" height="24" fill="white"/>
</clipPath>
</defs>
</svg>
