<svg width="13" height="12" viewBox="0 0 13 12" fill="none" xmlns="http://www.w3.org/2000/svg">
<path d="M0.982377 0.427378C0.89264 0.430108 0.8044 0.449678 0.72288 0.484931C0.641361 0.520183 0.568221 0.570401 0.50779 0.632611C0.447358 0.69482 0.400865 0.767757 0.371062 0.847103C0.341259 0.926449 0.328752 1.01059 0.334282 1.09455C0.42394 2.53448 0.84661 6.0479 2.87031 8.239C5.29362 10.8789 8.44956 11.7884 11.6875 11.654C11.861 11.6443 12.0242 11.5733 12.144 11.4552C12.2638 11.3372 12.3314 11.1809 12.333 11.0181V8.71177C12.331 8.49659 12.2519 8.28829 12.1083 8.12029C11.9648 7.9523 11.7651 7.83437 11.5415 7.78542L9.91994 7.44944C9.71939 7.40938 9.51062 7.42662 9.32065 7.49893C9.13067 7.57123 8.96821 7.69528 8.8543 7.85501L8.49567 8.36379C8.46274 8.41035 8.41352 8.44469 8.35647 8.46089C8.29943 8.4771 8.23813 8.47417 8.18315 8.45259C7.3583 8.119 4.07172 6.67907 3.71052 4.25039C3.70345 4.20349 3.71135 4.15567 3.73323 4.11296C3.75511 4.07026 3.78999 4.03457 3.83348 4.0104L4.48414 3.63842C4.66261 3.5348 4.80279 3.38232 4.88571 3.20162C4.96864 3.02091 4.99031 2.8207 4.9478 2.62807L4.59173 1.08255C4.53967 0.865999 4.40913 0.673043 4.2223 0.536524C4.03548 0.400005 3.80393 0.328359 3.56707 0.333783L0.982377 0.427378Z" stroke="#F6B426" stroke-width="0.666667"/>
</svg>
