<svg xmlns="http://www.w3.org/2000/svg" xmlns:xlink="http://www.w3.org/1999/xlink" width="1920" zoomAndPan="magnify" viewBox="0 0 1440 809.999993" height="1080" preserveAspectRatio="xMidYMid meet" version="1.0"><defs><clipPath id="c83d6f701f"><path d="M 410.832031 402.105469 L 712.734375 402.105469 L 712.734375 705.835938 L 410.832031 705.835938 Z M 410.832031 402.105469 " clip-rule="nonzero"/></clipPath><clipPath id="917585de80"><path d="M 753.585938 402.105469 L 1055.488281 402.105469 L 1055.488281 705.835938 L 753.585938 705.835938 Z M 753.585938 402.105469 " clip-rule="nonzero"/></clipPath><clipPath id="8b52220a3f"><path d="M 753.585938 56.246094 L 1055.488281 56.246094 L 1055.488281 359.976562 L 753.585938 359.976562 Z M 753.585938 56.246094 " clip-rule="nonzero"/></clipPath><clipPath id="712673fdb9"><path d="M 279 3 L 649 3 L 649 373 L 279 373 Z M 279 3 " clip-rule="nonzero"/></clipPath><clipPath id="1d3d364c64"><path d="M 279.644531 78.808594 L 571.875 3 L 648.277344 297.511719 L 356.046875 373.320312 Z M 279.644531 78.808594 " clip-rule="nonzero"/></clipPath><clipPath id="5e3c7ebae6"><path d="M 279.644531 78.808594 L 571.875 3 L 648.144531 296.996094 L 355.914062 372.808594 Z M 279.644531 78.808594 " clip-rule="nonzero"/></clipPath></defs><g clip-path="url(#c83d6f701f)"><path fill="#ffb82b" d="M 410.832031 402.105469 L 712.734375 402.105469 L 712.734375 706.367188 L 410.832031 706.367188 Z M 410.832031 402.105469 " fill-opacity="1" fill-rule="nonzero"/></g><g clip-path="url(#917585de80)"><path fill="#ffb82b" d="M 753.585938 402.105469 L 1055.488281 402.105469 L 1055.488281 706.367188 L 753.585938 706.367188 Z M 753.585938 402.105469 " fill-opacity="1" fill-rule="nonzero"/></g><g clip-path="url(#8b52220a3f)"><path fill="#ffb82b" d="M 753.585938 56.246094 L 1055.488281 56.246094 L 1055.488281 360.507812 L 753.585938 360.507812 Z M 753.585938 56.246094 " fill-opacity="1" fill-rule="nonzero"/></g><g clip-path="url(#712673fdb9)"><g clip-path="url(#1d3d364c64)"><g clip-path="url(#5e3c7ebae6)"><path fill="#ffb82b" d="M 279.644531 78.808594 L 571.875 3 L 648.277344 297.511719 L 356.046875 373.320312 Z M 279.644531 78.808594 " fill-opacity="1" fill-rule="nonzero"/></g></g></g></svg>