<svg width="13" height="12" viewBox="0 0 13 12" fill="none" xmlns="http://www.w3.org/2000/svg">
<path d="M0.982499 0.427378C0.892762 0.430108 0.804522 0.449678 0.723003 0.484931C0.641483 0.520183 0.568343 0.570401 0.507912 0.632611C0.44748 0.69482 0.400987 0.767757 0.371184 0.847103C0.341381 0.926449 0.328874 1.01059 0.334404 1.09455C0.424062 2.53448 0.846732 6.0479 2.87043 8.239C5.29374 10.8789 8.44968 11.7884 11.6876 11.654C11.8612 11.6443 12.0243 11.5733 12.1441 11.4552C12.2639 11.3372 12.3315 11.1809 12.3331 11.0181V8.71177C12.3311 8.49659 12.252 8.28829 12.1084 8.12029C11.9649 7.9523 11.7653 7.83437 11.5416 7.78542L9.92006 7.44944C9.71951 7.40938 9.51075 7.42662 9.32077 7.49893C9.13079 7.57123 8.96834 7.69528 8.85442 7.85501L8.49579 8.36379C8.46287 8.41035 8.41364 8.44469 8.35659 8.46089C8.29955 8.4771 8.23825 8.47417 8.18327 8.45259C7.35842 8.119 4.07184 6.67907 3.71065 4.25039C3.70357 4.20349 3.71147 4.15567 3.73335 4.11296C3.75523 4.07026 3.79012 4.03457 3.83361 4.0104L4.48426 3.63842C4.66273 3.5348 4.80291 3.38232 4.88584 3.20162C4.96876 3.02091 4.99044 2.8207 4.94792 2.62807L4.59185 1.08255C4.5398 0.865999 4.40925 0.673043 4.22243 0.536524C4.0356 0.400005 3.80406 0.328359 3.5672 0.333783L0.982499 0.427378Z" stroke="#F6B426" stroke-width="0.666667"/>
</svg>
