<svg width="33" height="22" viewBox="0 0 33 22" fill="none" xmlns="http://www.w3.org/2000/svg">
<path d="M13.2686 0.824586C13.7697 0.824586 14.1991 1.00353 14.557 1.36142C14.8433 1.7193 14.9865 2.14877 14.9865 2.64981C14.9865 3.22243 14.8791 3.79505 14.6644 4.36766L8.97397 19.0768C8.61608 19.7926 8.2582 20.3652 7.90031 20.7947C7.47085 21.2957 6.79086 21.5462 5.86036 21.5462L2.31728 21.5462C1.74466 21.5462 1.3152 21.3315 1.02889 20.902C0.671002 20.4726 0.563636 19.8999 0.706791 19.1842L3.06884 3.9382C3.14042 3.07927 3.42673 2.32771 3.92777 1.68351C4.42881 1.11089 5.18038 0.824585 6.18246 0.824585L13.2686 0.824586ZM30.4472 0.824587C30.9482 0.824587 31.3777 1.00353 31.7356 1.36142C32.0219 1.7193 32.165 2.14877 32.165 2.64981C32.165 3.22243 32.0577 3.79505 31.8429 4.36766L26.1525 19.0768C25.7946 19.7926 25.401 20.3652 24.9715 20.7947C24.542 21.2957 23.8978 21.5462 23.0389 21.5462H19.4958C18.9232 21.5462 18.4938 21.3315 18.2074 20.902C17.8496 20.4726 17.7422 19.8999 17.8853 19.1842L20.2474 3.9382C20.319 3.07927 20.6053 2.32771 21.1063 1.68352C21.6074 1.1109 22.3231 0.824586 23.2536 0.824586L30.4472 0.824587Z" fill="#300942"/>
</svg>
