<svg width="24" height="24" viewBox="0 0 24 24" fill="none" xmlns="http://www.w3.org/2000/svg">
<g clip-path="url(#clip0_3_502)">
<path d="M77.8143 21.5437L62.6762 0.659058L7.01429 44.4152L3.92857 44.3824V44.4293H1.5V100.659H101.5V44.4293H96.919L87.8048 18.1934L77.8143 21.5437ZM86.8571 44.4293H39.1048L74.6714 32.4992L81.919 30.2172L86.8571 44.4293ZM68.4048 24.702L31.6905 37.0163L60.7667 14.1589L68.4048 24.702ZM11.0238 82.7077V62.3713C13.0328 61.6707 14.8577 60.5378 16.3652 59.0551C17.8728 57.5725 19.0251 55.7774 19.7381 53.8009H83.2619C83.9746 55.7781 85.1268 57.574 86.6343 59.0574C88.1419 60.5409 89.9668 61.6746 91.9762 62.3759V82.7124C89.9668 83.4137 88.1419 84.5474 86.6343 86.0309C85.1268 87.5144 83.9746 89.3102 83.2619 91.2874H19.7476C19.0342 89.3085 17.8808 87.5113 16.3715 86.027C14.8623 84.5426 13.0352 83.4086 11.0238 82.7077Z" fill="#9747FF"/>
</g>
<defs>
<clipPath id="clip0_3_502">
<rect width="24" height="24" fill="white"/>
</clipPath>
</defs>
</svg>
