<svg width="81" height="16" viewBox="0 0 81 16" fill="none" xmlns="http://www.w3.org/2000/svg">
<path d="M13.6733 0.75L1.57198 0.75C0.91074 0.75 0.333008 1.22578 0.333008 1.87925L0.333008 14.0074C0.333008 14.6644 0.91074 15.25 1.57198 15.25L13.6697 15.25C14.3345 15.25 14.833 14.6606 14.833 14.0074L14.833 1.87925C14.8368 1.22578 14.3345 0.75 13.6733 0.75ZM4.82767 12.8364L2.75042 12.8364L2.75042 6.37779L4.82767 6.37779L4.82767 12.8364ZM3.8609 5.39581H3.84601C3.18121 5.39581 2.75074 4.90093 2.75074 4.28145C2.75074 3.65064 3.19254 3.16741 3.87223 3.16741C4.55191 3.16741 4.96781 3.64708 4.9827 4.28145C4.98238 4.90093 4.55191 5.39581 3.8609 5.39581ZM12.4194 12.8364L10.3422 12.8364L10.3422 9.30497C10.3422 8.45892 10.0399 7.88087 9.28834 7.88087C8.71417 7.88087 8.37433 8.26926 8.22318 8.64762C8.16654 8.78356 8.15133 8.96869 8.15133 9.15771L8.15133 12.8364L6.07408 12.8364L6.07408 6.37779L8.15133 6.37779L8.15133 7.2766C8.45363 6.84613 8.92585 6.22664 10.0247 6.22664C11.3882 6.22664 12.4198 7.12545 12.4198 9.0632L12.4194 12.8364Z" fill="white"/>
<path d="M47.147 5.16277C46.6101 5.39591 46.042 5.54951 45.4607 5.61871C46.0716 5.26122 46.531 4.6933 46.7528 4.02145C46.1752 4.35895 45.5443 4.59577 44.8872 4.72174C44.6105 4.43195 44.2777 4.20141 43.9091 4.04414C43.5404 3.88687 43.1436 3.80615 42.7428 3.80689C41.1199 3.80689 39.8066 5.10019 39.8066 6.69447C39.8055 6.91623 39.8309 7.13733 39.8824 7.35304C38.7187 7.29853 37.5792 7.00188 36.5368 6.48208C35.4944 5.96227 34.572 5.23076 33.8287 4.33434C33.568 4.77362 33.4301 5.27483 33.4294 5.78558C33.4294 6.78685 33.9522 7.6719 34.7415 8.19041C34.2739 8.17932 33.8158 8.05563 33.4062 7.82984V7.86559C33.4062 9.26618 34.4201 10.4313 35.762 10.6966C35.5097 10.7638 35.2496 10.7978 34.9885 10.7979C34.8031 10.7982 34.6183 10.7802 34.4365 10.7442C34.8095 11.8915 35.8953 12.7259 37.1815 12.7497C36.1364 13.5546 34.8533 13.9896 33.5338 13.9864C33.2996 13.9861 33.0656 13.9722 32.833 13.9447C34.1753 14.8012 35.7356 15.2543 37.3282 15.2499C42.7365 15.2499 45.6912 10.8485 45.6912 7.03121C45.6912 6.90605 45.6879 6.78089 45.6819 6.65871C46.2554 6.25107 46.7516 5.74449 47.147 5.16277V5.16277Z" fill="white"/>
<path fill-rule="evenodd" clip-rule="evenodd" d="M80.4803 8.15517C80.4803 4.18956 77.0474 0.974121 72.8136 0.974121C68.5799 0.974121 65.147 4.18956 65.147 8.15517C65.147 11.7393 67.9501 14.7101 71.6157 15.2493L71.6157 10.2316L69.6686 10.2316V8.15517L71.6157 8.15517V6.57309C71.6157 4.77366 72.7606 3.7789 74.5116 3.7789C75.3505 3.7789 76.228 3.91931 76.228 3.91931L76.228 5.68668L75.2608 5.68668C74.309 5.68668 74.0112 6.24001 74.0112 6.80872V8.15517L76.1373 8.15517L75.7978 10.2316L74.0116 10.2316L74.0116 15.25C77.6772 14.7111 80.4803 11.7402 80.4803 8.15517V8.15517Z" fill="white"/>
</svg>
