<svg width="12" height="11" viewBox="0 0 12 11" fill="none" xmlns="http://www.w3.org/2000/svg">
<path d="M5.72375 0.428368C5.87343 -0.0322869 6.52513 -0.0322858 6.67481 0.42837L7.59834 3.27071C7.66528 3.47672 7.85725 3.6162 8.07387 3.6162H11.0625C11.5468 3.6162 11.7482 4.23601 11.3564 4.52071L8.93853 6.27737C8.76329 6.40469 8.68996 6.63038 8.7569 6.83639L9.68043 9.67873C9.83011 10.1394 9.30287 10.5224 8.91101 10.2377L6.49317 8.48108C6.31793 8.35376 6.08063 8.35376 5.90539 8.48108L3.48755 10.2377C3.09569 10.5224 2.56845 10.1394 2.71813 9.67873L3.64166 6.83639C3.7086 6.63038 3.63527 6.40469 3.46002 6.27737L1.04219 4.52071C0.650328 4.23601 0.851717 3.6162 1.33608 3.6162H4.32469C4.54131 3.6162 4.73328 3.47672 4.80022 3.27071L5.72375 0.428368Z" fill="#141414"/>
</svg>
