<svg width="12" height="11" viewBox="0 0 12 11" fill="none" xmlns="http://www.w3.org/2000/svg">
<path d="M5.75126 0.463525C5.90094 0.00286925 6.55264 0.0028702 6.70232 0.463526L7.66776 3.43486C7.7347 3.64087 7.92668 3.78035 8.14329 3.78035H11.2675C11.7519 3.78035 11.9533 4.40016 11.5614 4.68486L9.03386 6.52125C8.85862 6.64857 8.78529 6.87426 8.85223 7.08027L9.81767 10.0516C9.96735 10.5123 9.44011 10.8953 9.04825 10.6106L6.52068 8.77423C6.34544 8.64691 6.10814 8.64691 5.93289 8.77423L3.40532 10.6106C3.01347 10.8953 2.48623 10.5123 2.6359 10.0516L3.60135 7.08027C3.66829 6.87426 3.59496 6.64857 3.41971 6.52125L0.892143 4.68486C0.500286 4.40016 0.701674 3.78035 1.18604 3.78035H4.31029C4.5269 3.78035 4.71888 3.64087 4.78581 3.43486L5.75126 0.463525Z" fill="#141414"/>
</svg>
