<svg width="81" height="16" viewBox="0 0 81 16" fill="none" xmlns="http://www.w3.org/2000/svg">
<path d="M14.1712 0.523926L2.07621 0.523926C1.41532 0.523926 0.837891 0.999458 0.837891 1.65259L0.837891 13.7744C0.837891 14.4311 1.41532 15.0163 2.07621 15.0163L14.1677 15.0163C14.8321 15.0163 15.3303 14.4272 15.3303 13.7744L15.3303 1.65259C15.3342 0.999458 14.8321 0.523926 14.1712 0.523926ZM5.33021 12.6041L3.25405 12.6041L3.25405 6.14879L5.33021 6.14879L5.33021 12.6041ZM4.36394 5.16732H4.34906C3.68461 5.16732 3.25437 4.6727 3.25437 4.05354C3.25437 3.42305 3.69593 2.94008 4.37527 2.94008C5.0546 2.94008 5.47028 3.41949 5.48516 4.05354C5.48484 4.6727 5.0546 5.16732 4.36394 5.16732ZM12.918 12.6041L10.8419 12.6041L10.8419 9.07444C10.8419 8.22884 10.5397 7.65108 9.78856 7.65108C9.21469 7.65108 8.87503 8.03927 8.72396 8.41743C8.66735 8.5533 8.65214 8.73834 8.65214 8.92725L8.65214 12.6041L6.57598 12.6041L6.57598 6.14879L8.65214 6.14879V7.04712C8.95428 6.61688 9.42626 5.99772 10.5245 5.99772C11.8874 5.99772 12.9183 6.89605 12.9183 8.8328L12.918 12.6041Z" fill="white"/>
<path d="M47.6279 4.93428C47.0912 5.1673 46.5234 5.32081 45.9424 5.38998C46.553 5.03268 47.0122 4.46505 47.2338 3.79355C46.6565 4.13088 46.026 4.36757 45.3692 4.49348C45.0927 4.20384 44.76 3.97342 44.3916 3.81623C44.0231 3.65904 43.6265 3.57837 43.2259 3.57911C41.6039 3.57911 40.2913 4.87174 40.2913 6.46518C40.2901 6.68683 40.3155 6.90781 40.367 7.12341C39.2039 7.06893 38.065 6.77243 37.0231 6.2529C35.9813 5.73337 35.0594 5.00224 34.3165 4.10628C34.0559 4.54534 33.918 5.04628 33.9174 5.55677C33.9174 6.55751 34.4399 7.4421 35.2288 7.96035C34.7614 7.94926 34.3036 7.82563 33.8941 7.59996V7.6357C33.8941 9.03555 34.9075 10.2001 36.2488 10.4652C35.9966 10.5324 35.7366 10.5664 35.4756 10.5665C35.2904 10.5668 35.1056 10.5488 34.9239 10.5128C35.2968 11.6595 36.382 12.4935 37.6675 12.5173C36.6229 13.3218 35.3405 13.7565 34.0217 13.7533C33.7876 13.753 33.5538 13.7391 33.3213 13.7117C34.6629 14.5677 36.2224 15.0205 37.8142 15.0162C43.2197 15.0162 46.1728 10.6171 46.1728 6.80174C46.1728 6.67665 46.1695 6.55156 46.1635 6.42944C46.7367 6.02201 47.2326 5.5157 47.6279 4.93428Z" fill="white"/>
<path fill-rule="evenodd" clip-rule="evenodd" d="M80.9435 7.92487C80.9435 3.96133 77.5124 0.747559 73.2808 0.747559C69.0493 0.747559 65.6182 3.96133 65.6182 7.92487C65.6182 11.5071 68.4198 14.4764 72.0835 15.0153V10.0002L70.1374 10.0002V7.92487L72.0835 7.92487L72.0835 6.34362C72.0835 4.54512 73.2278 3.55087 74.9779 3.55087C75.8164 3.55087 76.6935 3.69122 76.6935 3.69122V5.45767L75.7267 5.45767C74.7754 5.45767 74.4778 6.0107 74.4778 6.57912L74.4778 7.92487L76.6028 7.92487L76.2635 10.0002L74.4781 10.0002V15.016C78.1418 14.4774 80.9435 11.5081 80.9435 7.92487Z" fill="white"/>
</svg>
