<svg width="24" height="24" viewBox="0 0 24 24" fill="none" xmlns="http://www.w3.org/2000/svg">
<path d="M20 4.00012H4C3.20435 4.00012 2.44129 4.31619 1.87868 4.8788C1.31607 5.44141 1 6.20447 1 7.00012V17.0001C1 17.7958 1.31607 18.5588 1.87868 19.1214C2.44129 19.6841 3.20435 20.0001 4 20.0001H20C20.7956 20.0001 21.5587 19.6841 22.1213 19.1214C22.6839 18.5588 23 17.7958 23 17.0001V7.00012C23 6.20447 22.6839 5.44141 22.1213 4.8788C21.5587 4.31619 20.7956 4.00012 20 4.00012ZM21 16.7501L16.1 12.3501L21 8.92012V16.7501ZM3 8.92012L7.9 12.3501L3 16.7501V8.92012ZM9.58 13.5301L11.43 14.8201C11.5974 14.9362 11.7963 14.9985 12 14.9985C12.2037 14.9985 12.4026 14.9362 12.57 14.8201L14.42 13.5301L19.42 18.0001H4.6L9.58 13.5301ZM4 6.00012H20C20.1857 6.00161 20.3673 6.05479 20.5245 6.1537C20.6817 6.25261 20.8083 6.39334 20.89 6.56012L12 12.7801L3.11 6.56012C3.19171 6.39334 3.31826 6.25261 3.47545 6.1537C3.63265 6.05479 3.81428 6.00161 4 6.00012Z" fill="#A098AE"/>
</svg>
