<svg width="24" height="24" viewBox="0 0 24 24" fill="none" xmlns="http://www.w3.org/2000/svg">
<path d="M15.7054 6.52503C15.7054 6.73128 15.6913 6.93753 15.6656 7.14144C15.6773 7.05941 15.689 6.97503 15.6984 6.893C15.6421 7.30081 15.5343 7.69691 15.3773 8.07659C15.4077 8.00159 15.4405 7.92659 15.471 7.85159C15.314 8.22191 15.1124 8.56878 14.8663 8.88753C14.9155 8.82425 14.9648 8.76097 15.014 8.69769C14.7702 9.01175 14.4866 9.29534 14.1726 9.53909C14.2359 9.48987 14.2991 9.44066 14.3624 9.39144C14.0437 9.63519 13.6968 9.83909 13.3265 9.99612C13.4015 9.96566 13.4765 9.93284 13.5515 9.90237C13.1718 10.0594 12.7757 10.1672 12.3679 10.2235C12.4499 10.2118 12.5343 10.2 12.6163 10.1907C12.2062 10.2446 11.7937 10.2446 11.3835 10.1907C11.4655 10.2024 11.5499 10.2141 11.632 10.2235C11.2241 10.1672 10.828 10.0594 10.4484 9.90237C10.5234 9.93284 10.5984 9.96566 10.6734 9.99612C10.303 9.83909 9.95617 9.63753 9.63742 9.39144C9.7007 9.44066 9.76398 9.48987 9.82726 9.53909C9.5132 9.29534 9.22961 9.01175 8.98586 8.69769C9.03508 8.76097 9.08429 8.82425 9.13351 8.88753C8.88976 8.56878 8.68586 8.22191 8.52883 7.85159C8.55929 7.92659 8.59211 8.00159 8.62258 8.07659C8.46554 7.69691 8.35773 7.30081 8.30148 6.893C8.3132 6.97503 8.32492 7.05941 8.33429 7.14144C8.28039 6.73128 8.28039 6.31878 8.33429 5.90863C8.32258 5.99066 8.31086 6.07503 8.30148 6.15706C8.35773 5.74925 8.46554 5.35316 8.62258 4.97347C8.59211 5.04847 8.55929 5.12347 8.52883 5.19847C8.68586 4.82816 8.88742 4.48128 9.13351 4.16253C9.08429 4.22581 9.03508 4.28909 8.98586 4.35238C9.22961 4.03831 9.5132 3.75472 9.82726 3.51097C9.76398 3.56019 9.7007 3.60941 9.63742 3.65863C9.95617 3.41488 10.303 3.21097 10.6734 3.05394C10.5984 3.08441 10.5234 3.11722 10.4484 3.14769C10.828 2.99066 11.2241 2.88284 11.632 2.82659C11.5499 2.83831 11.4655 2.85003 11.3835 2.85941C11.7937 2.8055 12.2062 2.8055 12.6163 2.85941C12.5343 2.84769 12.4499 2.83597 12.3679 2.82659C12.7757 2.88284 13.1718 2.99066 13.5515 3.14769C13.4765 3.11722 13.4015 3.08441 13.3265 3.05394C13.6968 3.21097 14.0437 3.41253 14.3624 3.65863C14.2991 3.60941 14.2359 3.56019 14.1726 3.51097C14.4866 3.75472 14.7702 4.03831 15.014 4.35238C14.9648 4.28909 14.9155 4.22581 14.8663 4.16253C15.1101 4.48128 15.314 4.82816 15.471 5.19847C15.4405 5.12347 15.4077 5.04847 15.3773 4.97347C15.5343 5.35316 15.6421 5.74925 15.6984 6.15706C15.6866 6.07503 15.6749 5.99066 15.6656 5.90863C15.6913 6.11253 15.703 6.31878 15.7054 6.52503C15.7077 7.01487 16.1343 7.48597 16.6429 7.46253C17.1491 7.43909 17.5827 7.05003 17.5804 6.52503C17.5757 5.40238 17.2382 4.25394 16.5773 3.33988C16.3991 3.09378 16.2093 2.85238 15.9984 2.63441C15.7851 2.41409 15.5507 2.22425 15.307 2.03909C14.864 1.70159 14.3695 1.45316 13.8445 1.26097C11.728 0.485188 9.1757 1.17659 7.74367 2.92034C7.54679 3.15941 7.35929 3.40784 7.19992 3.67503C7.04054 3.93988 6.91632 4.22113 6.80148 4.50706C6.58586 5.03675 6.4757 5.59925 6.43117 6.16878C6.34445 7.28441 6.63507 8.44925 7.21632 9.4055C7.77648 10.3289 8.62258 11.1211 9.61164 11.5688C9.90226 11.7 10.1999 11.8219 10.5093 11.9086C10.8163 11.993 11.128 12.0399 11.4445 12.0774C12.021 12.1453 12.6093 12.0985 13.1788 11.9836C15.3421 11.543 17.1538 9.67972 17.489 7.493C17.5382 7.17425 17.5757 6.8555 17.5757 6.53206C17.5781 6.04222 17.1421 5.57113 16.6382 5.59456C16.132 5.61097 15.7054 6.00003 15.7054 6.52503ZM18.8156 21.1805C18.3562 21.1805 17.8968 21.1805 17.4374 21.1805C16.3429 21.1805 15.2507 21.1805 14.1562 21.1805C12.839 21.1805 11.5218 21.1805 10.2023 21.1805C9.06554 21.1805 7.92882 21.1805 6.78976 21.1805C6.25773 21.1805 5.7257 21.1852 5.19367 21.1805C5.13507 21.1805 5.07648 21.1758 5.02023 21.1688C5.10226 21.1805 5.18663 21.1922 5.26867 21.2016C5.17492 21.1875 5.08585 21.1617 4.99913 21.1266C5.07413 21.1571 5.14913 21.1899 5.22413 21.2203C5.13038 21.1805 5.04367 21.1289 4.96163 21.0657C5.02492 21.1149 5.0882 21.1641 5.15148 21.2133C5.08117 21.1547 5.01554 21.0914 4.95929 21.0211C5.00851 21.0844 5.05773 21.1477 5.10695 21.211C5.04367 21.1289 4.99445 21.0422 4.95226 20.9485C4.98273 21.0235 5.01554 21.0985 5.04601 21.1735C5.01085 21.0868 4.98742 20.9953 4.97101 20.9039C4.98273 20.986 4.99445 21.0703 5.00382 21.1524C4.96632 20.8688 4.9921 20.5688 4.9921 20.2828C4.9921 19.9477 4.9921 19.6149 4.9921 19.2797C4.9921 19.0289 5.00617 18.7805 5.03898 18.5321C5.02726 18.6141 5.01554 18.6985 5.00617 18.7805C5.07179 18.3 5.19835 17.8289 5.3882 17.3813C5.35773 17.4563 5.32492 17.5313 5.29445 17.6063C5.47726 17.1797 5.71164 16.7789 5.99523 16.411C5.94601 16.4742 5.89679 16.5375 5.84757 16.6008C6.13117 16.2375 6.45695 15.9094 6.82257 15.6258C6.75929 15.675 6.69601 15.7242 6.63273 15.7735C7.0007 15.4899 7.40148 15.2555 7.82804 15.0727C7.75304 15.1032 7.67804 15.136 7.60304 15.1664C8.0507 14.9789 8.51945 14.85 9.00226 14.7844C8.92023 14.7961 8.83586 14.8078 8.75383 14.8172C9.1007 14.7727 9.44523 14.7703 9.79445 14.7703C10.2234 14.7703 10.6523 14.7703 11.0812 14.7703C12.082 14.7703 13.0827 14.7703 14.0835 14.7703C14.4702 14.7703 14.8546 14.768 15.2413 14.8172C15.1593 14.8055 15.0749 14.7938 14.9929 14.7844C15.4734 14.85 15.9445 14.9766 16.3921 15.1664C16.3171 15.136 16.2421 15.1032 16.1671 15.0727C16.5937 15.2555 16.9945 15.4899 17.3624 15.7735C17.2991 15.7242 17.2359 15.675 17.1726 15.6258C17.5359 15.9094 17.864 16.2352 18.1476 16.6008C18.0984 16.5375 18.0491 16.4742 17.9999 16.411C18.2835 16.7789 18.5179 17.1797 18.7007 17.6063C18.6702 17.5313 18.6374 17.4563 18.607 17.3813C18.7945 17.8289 18.9234 18.2977 18.989 18.7805C18.9773 18.6985 18.9656 18.6141 18.9562 18.5321C19.0007 18.886 19.0031 19.2375 19.0031 19.5938C19.0031 19.9805 19.0031 20.3672 19.0031 20.7539C19.0031 20.8875 19.0077 21.0211 18.9913 21.1524C19.0031 21.0703 19.0148 20.986 19.0241 20.9039C19.0101 20.9977 18.9843 21.0868 18.9491 21.1735C18.9796 21.0985 19.0124 21.0235 19.0429 20.9485C19.0031 21.0422 18.9515 21.1289 18.8882 21.211C18.9374 21.1477 18.9866 21.0844 19.0359 21.0211C18.9773 21.0914 18.914 21.1571 18.8437 21.2133C18.907 21.1641 18.9702 21.1149 19.0335 21.0657C18.9515 21.1289 18.8648 21.1782 18.771 21.2203C18.846 21.1899 18.921 21.1571 18.996 21.1266C18.9093 21.1617 18.8179 21.1852 18.7265 21.2016C18.8085 21.1899 18.8929 21.1782 18.9749 21.1688C18.9234 21.1758 18.8695 21.1782 18.8156 21.1805C18.5741 21.1828 18.3257 21.2836 18.1523 21.4547C17.9906 21.6164 17.8663 21.8836 17.8781 22.118C17.9015 22.6196 18.2906 23.0625 18.8156 23.0555C19.7273 23.0414 20.5288 22.4461 20.796 21.5719C20.9015 21.225 20.8781 20.8524 20.8781 20.4961C20.8781 19.6805 20.9038 18.8719 20.7632 18.0633C20.557 16.8797 19.9616 15.7664 19.146 14.8922C18.3304 14.018 17.2335 13.3758 16.0734 13.0899C15.4077 12.9258 14.7374 12.9 14.0577 12.9C13.3593 12.9 12.6632 12.9 11.9648 12.9C11.2757 12.9 10.589 12.9 9.89992 12.9C9.20383 12.9 8.51242 12.9328 7.83507 13.1133C6.68429 13.418 5.60148 14.0672 4.80226 14.9485C3.99601 15.8367 3.41241 16.9524 3.22257 18.143C3.09601 18.9422 3.12179 19.7438 3.12179 20.55C3.12179 20.9203 3.1007 21.3071 3.23429 21.661C3.40773 22.1157 3.68429 22.4742 4.08976 22.7438C4.40617 22.9524 4.80695 23.0532 5.18195 23.0578C5.36476 23.0602 5.54757 23.0578 5.73039 23.0578C6.19914 23.0578 6.66554 23.0578 7.13429 23.0578C7.79992 23.0578 8.4632 23.0578 9.12883 23.0578C9.90226 23.0578 10.6757 23.0578 11.4491 23.0578C12.2437 23.0578 13.0359 23.0578 13.8304 23.0578C14.557 23.0578 15.2812 23.0578 16.0077 23.0578C16.5773 23.0578 17.1468 23.0578 17.714 23.0578C18.0398 23.0578 18.3656 23.0578 18.6913 23.0578C18.7335 23.0578 18.7757 23.0578 18.8179 23.0578C19.3077 23.0578 19.7788 22.6266 19.7554 22.1203C19.732 21.6094 19.3429 21.1805 18.8156 21.1805Z" fill="white"/>
</svg>
